<?xml version="1.0" encoding="UTF-8" standalone="no"?>
<svg
   xmlns:dc="http://purl.org/dc/elements/1.1/"
   xmlns:cc="http://creativecommons.org/ns#"
   xmlns:rdf="http://www.w3.org/1999/02/22-rdf-syntax-ns#"
   xmlns:svg="http://www.w3.org/2000/svg"
   xmlns="http://www.w3.org/2000/svg"
   viewBox="0 0 793.70667 1122.52"
   height="1122.52"
   width="793.70667"
   xml:space="preserve"
   id="svg2"
   version="1.1"><metadata
     id="metadata8"><rdf:RDF><cc:Work
         rdf:about=""><dc:format>image/svg+xml</dc:format><dc:type
           rdf:resource="http://purl.org/dc/dcmitype/StillImage" /></cc:Work></rdf:RDF></metadata><defs
     id="defs6"><clipPath
       id="clipPath18"
       clipPathUnits="userSpaceOnUse"><path
         id="path16"
         d="M 0,841.89 H 595.28 V 0 H 0 Z" /></clipPath><clipPath
       id="clipPath34"
       clipPathUnits="userSpaceOnUse"><path
         id="path32"
         d="M 0,841.89 H 595.28 V 0 H 0 Z" /></clipPath></defs><g
     transform="matrix(1.3333333,0,0,-1.3333333,0,1122.52)"
     id="g10"><g
       id="g12"><g
         clip-path="url(#clipPath18)"
         id="g14"><g
           transform="translate(427.6885,230.8802)"
           id="g20"><path
             id="path22"
             style="fill:#343433;fill-opacity:1;fill-rule:evenodd;stroke:none"
             d="m 0,0 c 7.416,-0.142 13.518,-8.922 10.021,-16.17 -2.464,-5.115 -9.157,-7.714 -14.429,-5.558 -5.72,2.338 -8.701,9.892 -5.785,15.582 1.859,3.625 5.756,6.067 9.901,6.146 0.146,0.001 0.146,0.001 0.292,0 m -0.276,-1.188 c -6.674,-0.13 -12.096,-7.981 -8.967,-14.465 2.708,-5.616 11.211,-7.436 15.972,-3.014 3.27,3.036 4.134,8.379 1.942,12.302 -1.766,3.154 -5.316,5.197 -8.947,5.177" /></g></g></g><text
       id="text26"
       style="font-variant:normal;font-weight:normal;font-stretch:normal;font-size:18.91930008px;font-family:Arial;-inkscape-font-specification:ArialMT;writing-mode:lr-tb;fill:#343433;fill-opacity:1;fill-rule:nonzero;stroke:none"
       transform="matrix(1,0,0,-1,420.627,212.8271)"><tspan
         id="tspan24"
         y="0"
         x="0">R</tspan></text>
<g
       id="g28"><g
         clip-path="url(#clipPath34)"
         id="g30"><g
           transform="translate(101.457,600.0594)"
           id="g36"><path
             id="path38"
             style="fill:#343433;fill-opacity:1;fill-rule:nonzero;stroke:none"
             d="M 0,0 C -1.723,1.286 -3.15,2.326 -4.282,3.123 -4.644,3.37 -5.012,3.35 -5.386,3.059 L -8.559,0.724 -9.534,1.381 c 1.622,2.085 3.081,3.995 4.376,5.735 1.295,1.737 2.623,3.564 3.983,5.48 L -0.168,11.983 -1.365,8.685 C -1.531,8.217 -1.452,7.852 -1.127,7.585 0.034,6.676 1.477,5.579 3.2,4.293 l 17.766,-13.24 c 0.745,-0.553 1.42,-1.05 2.024,-1.49 0.604,-0.438 1.153,-0.831 1.646,-1.174 0.39,-0.27 0.769,-0.278 1.136,-0.031 l 2.879,2.08 0.974,-0.658 c -1.462,-1.841 -2.84,-3.629 -4.136,-5.368 l -3.967,-5.324 c -2.438,-3.269 -4.982,-6.745 -7.634,-10.426 l -0.273,-0.002 -5.823,6.317 0.5,0.989 6.073,-2.411 7.542,10.119 -12.509,9.323 -1.567,-2.103 c -1.132,-1.519 -2.38,-3.225 -3.744,-5.115 -0.279,-0.406 -0.274,-0.795 0.015,-1.169 l 2.288,-3.102 -0.74,-1.085 c -2.012,1.567 -3.507,2.716 -4.485,3.445 -0.95,0.707 -2.456,1.797 -4.519,3.264 l 0.697,1.118 3.686,-1.316 c 0.467,-0.168 0.827,-0.094 1.081,0.216 1.455,1.891 2.754,3.603 3.897,5.138 l 1.551,2.08 z" /></g><g
           transform="translate(83.2119,573.0111)"
           id="g40"><path
             id="path42"
             style="fill:#343433;fill-opacity:1;fill-rule:nonzero;stroke:none"
             d="m 0,0 c -0.936,0.564 -1.788,1.075 -2.556,1.529 -0.769,0.451 -1.47,0.86 -2.103,1.22 -0.399,0.22 -0.829,0.108 -1.289,-0.337 l -2.415,-2.148 -1.034,0.56 c 1.262,1.982 2.452,3.901 3.573,5.756 1.139,1.886 2.283,3.834 3.432,5.843 L -1.33,11.91 -2.201,8.509 C -2.328,8.054 -2.213,7.698 -1.857,7.44 -1.244,7.048 -0.553,6.615 0.214,6.143 0.981,5.669 1.833,5.148 2.768,4.583 L 21.735,-6.87 c 0.795,-0.481 1.515,-0.91 2.159,-1.288 0.644,-0.378 1.228,-0.715 1.752,-1.009 0.415,-0.229 0.792,-0.203 1.134,0.082 l 2.663,2.348 1.034,-0.56 c -1.277,-1.974 -2.476,-3.89 -3.596,-5.745 -1.13,-1.87 -2.266,-3.823 -3.409,-5.856 l -1.062,0.514 0.886,3.423 c 0.132,0.429 0.013,0.779 -0.358,1.044 -0.536,0.346 -1.126,0.718 -1.768,1.116 -0.642,0.399 -1.345,0.83 -2.109,1.29 z" /></g><g
           transform="translate(93.2236,544.745)"
           id="g44"><path
             id="path46"
             style="fill:#343433;fill-opacity:1;fill-rule:nonzero;stroke:none"
             d="m 0,0 -20.114,9.423 c -1.831,0.858 -3.645,1.685 -5.442,2.489 l -5.644,-12.049 5.073,-6.239 -0.349,-1.193 -8.602,4.692 -0.103,0.231 c 2.051,4.248 3.926,8.186 5.626,11.815 l 2.909,6.21 c 0.935,1.995 1.868,4.053 2.8,6.17 l 1.11,-0.399 -0.51,-3.471 c -0.078,-0.469 0.074,-0.81 0.454,-1.028 0.652,-0.325 1.384,-0.685 2.197,-1.075 0.812,-0.39 1.714,-0.818 2.703,-1.282 L 2.173,4.896 C 3.014,4.502 3.774,4.15 4.455,3.842 5.135,3.533 5.75,3.259 6.303,3.02 6.739,2.836 7.112,2.904 7.422,3.221 L 9.824,5.836 10.911,5.387 C 9.849,3.29 8.857,1.261 7.938,-0.701 7.011,-2.681 6.085,-4.741 5.163,-6.885 l -1.111,0.401 0.522,3.496 C 4.661,-2.546 4.505,-2.211 4.108,-1.984 3.539,-1.698 2.704,-1.292 1.603,-0.767 0.501,-0.239 -0.033,0.014 0,0" /></g><g
           transform="translate(60.2705,523.163)"
           id="g48"><path
             id="path50"
             style="fill:#343433;fill-opacity:1;fill-rule:nonzero;stroke:none"
             d="M 0,0 C -1.03,0.364 -1.968,0.689 -2.813,0.979 -3.657,1.267 -4.426,1.522 -5.12,1.747 -5.555,1.882 -5.953,1.684 -6.313,1.155 l -1.929,-2.593 -1.126,0.339 c 0.833,2.199 1.61,4.318 2.33,6.363 0.733,2.078 1.459,4.216 2.177,6.417 L -3.717,11.393 -3.881,7.888 C -3.913,7.416 -3.728,7.089 -3.328,6.909 -2.647,6.65 -1.883,6.366 -1.036,6.059 -0.188,5.75 0.75,5.414 1.781,5.05 l 20.896,-7.369 c 0.876,-0.309 1.668,-0.583 2.375,-0.822 0.707,-0.241 1.347,-0.451 1.92,-0.635 0.453,-0.14 0.818,-0.037 1.094,0.31 l 2.132,2.841 1.126,-0.339 c -0.85,-2.193 -1.636,-4.31 -2.356,-6.354 -0.727,-2.062 -1.444,-4.203 -2.151,-6.427 l -1.144,0.288 0.173,3.532 c 0.043,0.447 -0.145,0.766 -0.562,0.952 -0.596,0.229 -1.248,0.472 -1.958,0.733 -0.71,0.26 -1.485,0.538 -2.327,0.834 z" /></g><g
           transform="translate(63.959,500.349)"
           id="g52"><path
             id="path54"
             style="fill:#343433;fill-opacity:1;fill-rule:nonzero;stroke:none"
             d="m 0,0 c -0.505,-1.191 -0.901,-2.389 -1.185,-3.595 -0.669,-2.836 -0.448,-5.168 0.665,-6.993 1.113,-1.825 3.176,-3.094 6.19,-3.805 2.89,-0.682 5.209,-0.486 6.96,0.589 1.751,1.075 2.984,3.128 3.7,6.159 0.28,1.187 0.492,2.401 0.634,3.64 z m -9.812,2.315 c -1.063,0.251 -2.021,0.472 -2.875,0.664 -0.853,0.192 -1.618,0.36 -2.295,0.501 -0.413,0.078 -0.742,-0.088 -0.988,-0.497 l -1.983,-3.406 -1.156,0.216 c 0.66,2.559 1.239,4.893 1.736,7.002 0.507,2.145 0.999,4.351 1.477,6.613 l 1.169,-0.164 0.212,-3.502 c 0.033,-0.495 0.251,-0.8 0.655,-0.912 0.705,-0.186 1.495,-0.386 2.37,-0.603 0.875,-0.214 1.845,-0.449 2.908,-0.701 l 21.565,-5.09 c 0.904,-0.213 1.721,-0.401 2.45,-0.564 0.729,-0.162 1.387,-0.305 1.977,-0.423 0.465,-0.092 0.816,0.049 1.054,0.423 l 1.816,3.053 1.156,-0.217 c -0.611,-2.27 -1.173,-4.494 -1.687,-6.67 -0.346,-1.465 -0.645,-2.89 -0.897,-4.273 -0.251,-1.384 -0.51,-2.638 -0.776,-3.764 -0.992,-4.2 -2.561,-7.181 -4.709,-8.949 -2.148,-1.765 -4.844,-2.266 -8.088,-1.5 -3.811,0.899 -6.478,2.843 -8,5.83 -1.521,2.988 -1.752,6.73 -0.691,11.225 0.292,1.237 0.685,2.543 1.179,3.92 z" /></g><g
           transform="translate(77.8105,469.1215)"
           id="g56"><path
             id="path58"
             style="fill:#343433;fill-opacity:1;fill-rule:nonzero;stroke:none"
             d="m 0,0 -0.709,-6.601 c -0.436,-4.056 -0.859,-8.343 -1.271,-12.861 l -0.235,-0.14 -8.225,2.477 -0.073,1.108 6.455,1.009 1.349,12.552 -14.941,1.604 -0.266,-2.473 c -0.202,-1.882 -0.409,-3.985 -0.622,-6.308 -0.032,-0.472 0.17,-0.805 0.607,-0.999 l 3.565,-1.345 -0.103,-1.472 c -2.53,0.327 -4.401,0.554 -5.614,0.685 -1.178,0.127 -3.028,0.299 -5.551,0.515 l 0.049,1.478 3.827,0.578 c 0.486,0.094 0.761,0.349 0.824,0.764 0.288,2.35 0.536,4.475 0.74,6.376 l 0.262,2.446 -9.887,1.063 c -2.011,0.214 -3.995,0.411 -5.955,0.584 l -1.401,-13.04 6.544,-4.054 0.086,-1.247 -9.389,1.613 -0.17,0.212 c 0.558,4.684 1.05,9.008 1.477,12.975 l 0.694,6.465 c 0.235,2.191 0.449,4.441 0.642,6.746 l 1.18,-0.016 0.646,-3.449 c 0.078,-0.467 0.333,-0.743 0.763,-0.824 0.723,-0.096 1.532,-0.198 2.427,-0.302 0.896,-0.107 1.886,-0.217 2.973,-0.334 L -7.271,3.419 c 0.923,-0.1 1.756,-0.184 2.5,-0.255 0.744,-0.07 1.415,-0.129 2.015,-0.176 0.472,-0.031 0.804,0.153 0.993,0.554 L -0.341,6.797 0.833,6.726 C 0.509,4.396 0.231,2.154 0,0" /></g><g
           transform="translate(37.6963,423.4584)"
           id="g60"><path
             id="path62"
             style="fill:#343433;fill-opacity:1;fill-rule:nonzero;stroke:none"
             d="M 0,0 C -0.2,2.195 -0.432,4.441 -0.696,6.74 L 0.464,6.955 1.775,3.699 C 1.963,3.241 2.267,3.022 2.686,3.041 3.413,3.09 4.226,3.149 5.125,3.223 6.023,3.296 7.017,3.382 8.105,3.48 l 22.066,2.011 c 0.925,0.084 1.759,0.166 2.502,0.241 0.743,0.078 1.412,0.154 2.01,0.225 0.469,0.062 0.758,0.307 0.865,0.738 l 0.754,3.47 1.165,0.161 c 0.14,-2.346 0.311,-4.624 0.513,-6.837 0.165,-1.811 0.37,-3.556 0.614,-5.234 0.244,-1.678 0.448,-3.404 0.609,-5.181 0.578,-6.343 -0.434,-11.241 -3.036,-14.694 -2.603,-3.452 -6.752,-5.439 -12.447,-5.957 -6.712,-0.613 -12.083,0.684 -16.116,3.889 -4.032,3.206 -6.339,8.006 -6.922,14.405 -0.161,1.757 -0.276,3.328 -0.348,4.71 C 0.264,-3.192 0.152,-1.666 0,0 M 2.66,-2.393 C 2.612,-3.476 2.612,-4.532 2.661,-5.561 2.708,-6.59 2.78,-7.622 2.874,-8.656 c 0.436,-4.788 2.179,-8.305 5.228,-10.551 3.048,-2.246 7.483,-3.105 13.306,-2.573 5.659,0.515 9.746,2.085 12.259,4.711 2.514,2.624 3.536,6.512 3.066,11.664 -0.074,0.815 -0.175,1.717 -0.301,2.701 -0.126,0.986 -0.292,2.101 -0.497,3.344 z" /></g><g
           transform="translate(80.833,387.6439)"
           id="g64"><path
             id="path66"
             style="fill:#343433;fill-opacity:1;fill-rule:nonzero;stroke:none"
             d="m 0,0 1.556,-6.456 c 0.956,-3.965 2.001,-8.146 3.134,-12.537 l -0.173,-0.211 -8.579,-0.437 -0.442,1.018 5.738,3.126 -2.958,12.269 -14.608,-3.52 0.583,-2.418 c 0.444,-1.841 0.957,-3.891 1.539,-6.148 0.128,-0.457 0.431,-0.702 0.908,-0.737 l 3.809,-0.065 0.399,-1.422 c -2.491,-0.544 -4.33,-0.958 -5.517,-1.244 -1.151,-0.279 -2.951,-0.74 -5.399,-1.386 l -0.452,1.408 3.408,1.833 c 0.427,0.253 0.599,0.584 0.519,0.997 -0.519,2.309 -1.003,4.394 -1.451,6.253 l -0.576,2.391 -9.668,-2.331 c -1.966,-0.473 -3.9,-0.959 -5.804,-1.455 l 3.073,-12.748 7.527,-1.615 0.501,-1.144 -9.384,-1.643 -0.231,0.141 c -1.052,4.599 -2.046,8.837 -2.98,12.715 l -1.524,6.321 c -0.516,2.142 -1.073,4.332 -1.668,6.567 l 1.117,0.383 1.77,-3.031 c 0.231,-0.412 0.563,-0.586 0.996,-0.519 0.713,0.154 1.508,0.332 2.387,0.534 0.879,0.202 1.849,0.43 2.911,0.688 l 21.541,5.191 c 0.903,0.218 1.716,0.419 2.44,0.603 0.724,0.184 1.376,0.356 1.956,0.515 0.456,0.127 0.706,0.413 0.749,0.854 l 0.242,3.543 1.13,0.327 C -1.002,4.31 -0.508,2.106 0,0" /></g><g
           transform="translate(96.228,334.3197)"
           id="g68"><path
             id="path70"
             style="fill:#343433;fill-opacity:1;fill-rule:nonzero;stroke:none"
             d="M 0,0 C -0.182,2.006 -0.593,3.745 -1.235,5.213 -2.198,7.416 -3.5,8.94 -5.14,9.782 c -1.641,0.844 -3.413,0.85 -5.315,0.019 -1.085,-0.475 -1.936,-1.12 -2.553,-1.936 -0.617,-0.817 -1.065,-1.747 -1.344,-2.794 -0.278,-1.046 -0.444,-2.166 -0.498,-3.363 -0.053,-1.195 -0.084,-2.422 -0.092,-3.679 0.003,-1.369 -0.038,-2.719 -0.123,-4.048 -0.086,-1.328 -0.312,-2.595 -0.681,-3.8 -0.368,-1.204 -0.962,-2.3 -1.784,-3.285 -0.822,-0.985 -1.934,-1.784 -3.336,-2.397 -3.321,-1.45 -6.425,-1.263 -9.311,0.568 -2.887,1.829 -5.231,4.805 -7.032,8.926 -1.16,2.655 -1.993,5.79 -2.499,9.404 l 0.134,0.238 9.048,2.493 0.668,-1.05 -6.345,-4.86 c 0.073,-2.074 0.514,-4.04 1.323,-5.892 1.087,-2.486 2.485,-4.186 4.196,-5.098 1.71,-0.912 3.584,-0.923 5.62,-0.033 1.068,0.466 1.908,1.102 2.521,1.907 0.612,0.803 1.045,1.712 1.297,2.728 0.252,1.014 0.405,2.109 0.457,3.286 0.053,1.175 0.087,2.383 0.102,3.621 -0.01,1.388 0.037,2.759 0.14,4.116 0.102,1.357 0.346,2.653 0.733,3.884 0.385,1.231 1.025,2.361 1.918,3.387 0.893,1.027 2.091,1.867 3.593,2.525 3.021,1.321 5.91,1.078 8.667,-0.729 C -2.879,12.113 -0.683,9.341 0.951,5.603 2.103,2.965 3.001,0.067 3.646,-3.09 L 3.547,-3.342 -4.91,-5.277 -5.522,-4.354 Z" /></g><g
           transform="translate(88.4204,313.3959)"
           id="g72"><path
             id="path74"
             style="fill:#343433;fill-opacity:1;fill-rule:nonzero;stroke:none"
             d="m 0,0 c -5.045,-3.131 -8.277,-6.552 -9.694,-10.261 -1.418,-3.709 -0.902,-7.537 1.547,-11.483 2.41,-3.885 5.407,-5.995 8.993,-6.332 3.585,-0.337 7.985,1.112 13.201,4.348 4.89,3.035 8.041,6.351 9.453,9.95 1.411,3.597 0.845,7.447 -1.7,11.548 C 19.332,1.749 16.319,3.882 12.763,4.173 9.207,4.463 4.953,3.071 0,0 m 17.991,-28.322 c -5.355,-3.323 -10.605,-4.475 -15.748,-3.457 -5.143,1.017 -9.409,4.256 -12.797,9.715 -3.215,5.181 -4.197,10.125 -2.948,14.831 1.25,4.705 4.443,8.653 9.581,11.84 5.355,3.324 10.54,4.425 15.553,3.305 5.014,-1.12 9.201,-4.386 12.559,-9.799 3.225,-5.196 4.259,-10.119 3.102,-14.766 -1.156,-4.649 -4.257,-8.538 -9.302,-11.669" /></g><g
           transform="translate(122.8291,293.6508)"
           id="g76"><path
             id="path78"
             style="fill:#343433;fill-opacity:1;fill-rule:nonzero;stroke:none"
             d="m 0,0 c 1.504,-1.806 2.976,-3.52 4.414,-5.142 1.45,-1.635 2.975,-3.3 4.577,-4.997 L 8.184,-11 5.18,-9.136 c -0.371,0.255 -0.74,0.244 -1.105,-0.03 -0.489,-0.409 -1.019,-0.861 -1.591,-1.356 -0.571,-0.495 -1.191,-1.039 -1.859,-1.63 l -11.182,-9.915 c -3.897,-3.456 -6.049,-6.472 -6.455,-9.048 -0.406,-2.575 0.611,-5.239 3.052,-7.992 2.478,-2.793 5.049,-4.128 7.714,-4.005 2.665,0.124 5.817,1.799 9.456,5.026 l 11.427,10.132 c 0.668,0.593 1.281,1.142 1.841,1.651 0.559,0.508 1.065,0.988 1.518,1.438 0.301,0.291 0.356,0.656 0.163,1.093 l -1.426,3.008 0.904,0.874 c 1.48,-1.778 2.77,-3.288 3.869,-4.528 1.052,-1.186 2.36,-2.606 3.925,-4.262 l -0.806,-0.86 -3.082,1.868 c -0.386,0.217 -0.763,0.175 -1.129,-0.126 -0.462,-0.385 -0.976,-0.821 -1.54,-1.31 -0.565,-0.489 -1.195,-1.041 -1.89,-1.658 L 6.498,-40.064 c -4.471,-3.964 -8.582,-5.985 -12.334,-6.063 -3.753,-0.077 -7.364,1.839 -10.832,5.75 -3.396,3.829 -4.939,7.513 -4.63,11.049 0.309,3.536 2.494,7.104 6.555,10.705 l 11.734,10.404 c 0.695,0.616 1.319,1.176 1.871,1.679 0.553,0.502 1.048,0.959 1.486,1.372 0.342,0.327 0.429,0.696 0.259,1.106 l -1.45,3.242 z" /></g><g
           transform="translate(124.7632,234.9935)"
           id="g80"><path
             id="path82"
             style="fill:#343433;fill-opacity:1;fill-rule:nonzero;stroke:none"
             d="m 0,0 0.674,0.969 38.422,12.873 -12.321,10.394 -5.773,-3.708 -0.959,0.559 4.764,7.849 0.287,0.044 c 3.419,-2.981 6.688,-5.787 9.806,-8.418 l 4.928,-4.158 c 1.977,-1.668 3.991,-3.319 6.043,-4.955 L 45.197,10.48 6.817,-2.427 l 12.716,-10.729 7.555,3.276 1.063,-0.646 -6.959,-7.105 -0.248,-0.04 c -3.877,3.343 -7.34,6.3 -10.388,8.872 L 5.523,-4.553 C 3.575,-2.909 1.733,-1.392 0,0" /></g><g
           transform="translate(188.7769,235.182)"
           id="g84"><path
             id="path86"
             style="fill:#343433;fill-opacity:1;fill-rule:nonzero;stroke:none"
             d="m 0,0 -7.64,-34.716 c -0.288,-1.305 -0.394,-2.246 -0.318,-2.823 0.077,-0.577 0.349,-1.143 0.817,-1.698 l 1.76,-2.021 -0.583,-1.021 c -1.986,1.323 -3.841,2.531 -5.564,3.623 -1.754,1.111 -3.838,2.399 -6.251,3.865 l 0.536,1.051 2.602,-0.744 c 0.376,-0.087 0.671,-0.107 0.884,-0.059 0.214,0.048 0.408,0.21 0.584,0.487 0.195,0.308 0.37,0.763 0.526,1.366 0.155,0.602 0.35,1.411 0.584,2.427 l 1.75,7.559 -11.123,7.05 -6.328,-4.626 c -0.869,-0.657 -1.557,-1.181 -2.063,-1.572 -0.506,-0.39 -0.852,-0.732 -1.038,-1.024 -0.165,-0.262 -0.217,-0.504 -0.154,-0.728 0.064,-0.223 0.212,-0.473 0.446,-0.751 l 1.752,-1.983 -0.613,-1.068 c -2.155,1.43 -3.925,2.585 -5.309,3.462 -1.385,0.878 -2.945,1.835 -4.683,2.871 l 0.514,1.065 2.784,-0.762 c 0.702,-0.186 1.313,-0.174 1.834,0.035 0.52,0.209 1.208,0.614 2.063,1.214 L -2.596,1.16 Z m -19.251,-14.096 9.507,-6.025 3.558,15.567 z" /></g><g
           transform="translate(519.4043,306.7123)"
           id="g88"><path
             id="path90"
             style="fill:#343433;fill-opacity:1;fill-rule:nonzero;stroke:none"
             d="M 0,0 C 0.552,0.604 1.036,1.235 1.459,1.893 2.45,3.444 2.806,4.879 2.526,6.199 2.244,7.521 1.279,8.708 -0.367,9.763 c -1.58,1.009 -3.002,1.38 -4.272,1.105 C -5.905,10.595 -7.07,9.628 -8.131,7.973 -8.546,7.323 -8.926,6.645 -9.271,5.936 Z m 5.362,-3.434 c 0.583,-0.372 1.106,-0.704 1.576,-0.997 0.468,-0.293 0.889,-0.552 1.263,-0.778 0.229,-0.133 0.46,-0.103 0.693,0.089 l 1.894,1.615 0.644,-0.371 C 10.502,-5.262 9.67,-6.531 8.931,-7.685 8.181,-8.856 7.427,-10.067 6.668,-11.316 l -0.662,0.341 0.607,2.132 c 0.084,0.302 0.017,0.529 -0.2,0.681 C 6.031,-7.904 5.604,-7.619 5.126,-7.308 4.649,-6.996 4.12,-6.654 3.54,-6.281 L -8.245,1.264 c -0.495,0.316 -0.943,0.598 -1.343,0.847 -0.4,0.25 -0.763,0.473 -1.089,0.667 -0.258,0.154 -0.497,0.141 -0.718,-0.031 l -1.72,-1.44 -0.644,0.372 c 0.84,1.223 1.639,2.431 2.402,3.621 0.512,0.801 0.989,1.588 1.427,2.36 0.44,0.771 0.857,1.465 1.251,2.08 1.47,2.295 3.029,3.744 4.678,4.347 1.649,0.602 3.361,0.337 5.134,-0.797 C 3.215,11.955 4.398,10.239 4.68,8.141 4.962,6.041 4.316,3.765 2.743,1.307 2.312,0.632 1.803,-0.064 1.223,-0.782 Z" /></g><g
           transform="translate(517.3896,327.2592)"
           id="g92"><path
             id="path94"
             style="fill:#343433;fill-opacity:1;fill-rule:nonzero;stroke:none"
             d="m 0,0 1.98,3.694 c 1.216,2.273 2.481,4.682 3.791,7.229 L 5.942,10.949 10.171,7.551 9.952,6.885 5.933,7.822 2.168,0.795 l 8.368,-4.48 0.74,1.383 c 0.567,1.055 1.186,2.239 1.86,3.546 0.131,0.27 0.092,0.513 -0.118,0.73 L 11.25,3.606 11.658,4.444 C 13.063,3.653 14.103,3.075 14.783,2.711 15.441,2.357 16.485,1.82 17.909,1.095 L 17.531,0.241 15.155,0.811 C 14.847,0.87 14.626,0.786 14.491,0.558 13.766,-0.748 13.117,-1.936 12.548,-3 l -0.735,-1.369 5.537,-2.966 c 1.126,-0.602 2.242,-1.186 3.349,-1.753 l 3.909,7.302 -2.871,3.926 0.245,0.75 5.116,-3.17 0.048,-0.163 c -1.436,-2.611 -2.75,-5.028 -3.94,-7.247 l -1.936,-3.622 c -0.659,-1.225 -1.317,-2.493 -1.975,-3.796 l -0.687,0.29 0.438,2.172 c 0.065,0.291 -0.019,0.513 -0.251,0.663 -0.399,0.228 -0.851,0.477 -1.35,0.752 -0.498,0.273 -1.051,0.574 -1.661,0.898 L 3.447,-3.726 C 2.931,-3.45 2.463,-3.202 2.044,-2.984 1.625,-2.768 1.247,-2.573 0.905,-2.403 0.638,-2.272 0.398,-2.304 0.194,-2.493 L -1.41,-4.061 -2.08,-3.742 C -1.339,-2.455 -0.646,-1.208 0,0" /></g><g
           transform="translate(543.7148,337.8324)"
           id="g96"><path
             id="path98"
             style="fill:#343433;fill-opacity:1;fill-rule:nonzero;stroke:none"
             d="m 0,0 c 0.636,-0.271 1.208,-0.511 1.719,-0.722 0.51,-0.213 0.974,-0.4 1.391,-0.564 0.333,-0.13 0.597,-0.079 0.795,0.149 L 5.178,0.402 5.881,0.159 C 5.313,-1.088 4.761,-2.34 4.226,-3.599 3.681,-4.88 3.137,-6.2 2.597,-7.558 l -0.709,0.228 0.243,2.202 c 0.039,0.297 -0.066,0.509 -0.311,0.64 -0.419,0.19 -0.888,0.401 -1.41,0.628 -0.52,0.228 -1.098,0.477 -1.734,0.748 L -14.199,2.37 c -0.541,0.232 -1.028,0.436 -1.465,0.615 -0.436,0.178 -0.832,0.337 -1.186,0.477 -0.279,0.105 -0.512,0.055 -0.7,-0.151 l -1.457,-1.707 -0.697,0.259 c 0.623,1.347 1.212,2.673 1.767,3.975 0.109,0.258 0.24,0.587 0.393,0.989 0.153,0.402 0.339,0.891 0.56,1.467 0.224,0.587 0.413,1.075 0.566,1.464 0.153,0.389 0.278,0.696 0.374,0.922 1.038,2.439 2.273,4.074 3.701,4.906 1.43,0.832 3.018,0.874 4.763,0.131 1.578,-0.671 2.678,-1.633 3.301,-2.888 0.623,-1.253 0.834,-2.85 0.632,-4.792 1.303,0.243 2.549,0.447 3.739,0.613 1.189,0.163 2.282,0.323 3.277,0.476 0.998,0.151 1.885,0.303 2.661,0.452 0.777,0.149 1.412,0.324 1.911,0.525 0.257,0.104 0.489,0.216 0.699,0.341 0.209,0.122 0.396,0.264 0.564,0.425 0.17,0.159 0.331,0.333 0.486,0.524 0.156,0.189 0.323,0.404 0.498,0.641 l 0.72,-0.249 C 10.678,10.981 10.452,10.321 10.231,9.803 10.048,9.369 9.874,8.991 9.713,8.673 9.552,8.352 9.384,8.076 9.212,7.847 9.038,7.616 8.856,7.418 8.666,7.25 8.479,7.085 8.26,6.934 8.015,6.797 7.5,6.496 6.842,6.268 6.043,6.105 5.241,5.946 4.354,5.806 3.376,5.683 2.399,5.561 1.363,5.439 0.27,5.323 -0.824,5.204 -1.911,5.054 -2.99,4.867 -3.313,4.814 -3.572,4.764 -3.769,4.714 -3.965,4.663 -4.135,4.59 -4.275,4.491 -4.418,4.394 -4.541,4.263 -4.649,4.099 -4.756,3.936 -4.874,3.717 -5.005,3.443 L -5.508,2.346 Z m -6.699,2.853 c 0.306,0.631 0.576,1.223 0.811,1.773 0.781,1.831 0.963,3.34 0.548,4.522 -0.417,1.184 -1.455,2.128 -3.116,2.835 -1.608,0.687 -2.957,0.779 -4.045,0.28 -1.089,-0.5 -2.002,-1.618 -2.74,-3.354 -0.126,-0.296 -0.251,-0.619 -0.374,-0.966 -0.122,-0.347 -0.247,-0.725 -0.372,-1.136 z" /></g><g
           transform="translate(537.2812,369.4252)"
           id="g100"><path
             id="path102"
             style="fill:#343433;fill-opacity:1;fill-rule:nonzero;stroke:none"
             d="m 0,0 c -0.769,-1.016 -1.313,-2.003 -1.637,-2.963 -0.486,-1.438 -0.525,-2.702 -0.118,-3.793 0.408,-1.091 1.234,-1.848 2.477,-2.268 0.709,-0.24 1.38,-0.298 2.014,-0.18 0.636,0.118 1.242,0.364 1.816,0.735 0.574,0.37 1.13,0.824 1.663,1.36 0.533,0.535 1.066,1.095 1.604,1.679 0.582,0.642 1.175,1.255 1.78,1.839 0.603,0.585 1.249,1.081 1.931,1.488 0.685,0.407 1.426,0.665 2.23,0.777 0.803,0.11 1.661,0.013 2.576,-0.299 2.169,-0.733 3.54,-2.139 4.112,-4.222 0.571,-2.08 0.403,-4.466 -0.509,-7.158 -0.585,-1.733 -1.529,-3.552 -2.826,-5.456 l -0.166,-0.054 -5.286,2.68 0.135,0.774 5.029,-0.425 c 0.848,1 1.475,2.105 1.886,3.315 0.548,1.624 0.617,3.012 0.204,4.164 -0.41,1.155 -1.281,1.956 -2.611,2.405 -0.698,0.236 -1.362,0.295 -1.989,0.18 C 13.688,-5.538 13.1,-5.779 12.55,-6.145 12.002,-6.513 11.465,-6.96 10.939,-7.487 10.416,-8.013 9.887,-8.564 9.354,-9.137 8.77,-9.788 8.164,-10.41 7.539,-11 c -0.623,-0.591 -1.287,-1.092 -1.992,-1.502 -0.703,-0.413 -1.483,-0.669 -2.336,-0.769 -0.853,-0.1 -1.77,0.014 -2.751,0.348 -1.972,0.666 -3.219,2.006 -3.739,4.024 -0.522,2.014 -0.37,4.242 0.455,6.684 0.583,1.723 1.394,3.457 2.434,5.207 L -0.236,3.067 4.537,0.378 4.431,-0.314 Z" /></g><g
           transform="translate(549.5898,374.5238)"
           id="g104"><path
             id="path106"
             style="fill:#343433;fill-opacity:1;fill-rule:nonzero;stroke:none"
             d="m 0,0 c 3.646,-0.879 6.617,-0.815 8.914,0.192 2.295,1.01 3.789,2.939 4.476,5.789 0.677,2.808 0.298,5.091 -1.141,6.853 -1.438,1.761 -4.042,3.098 -7.812,4.007 C 0.903,17.693 -1.984,17.64 -4.229,16.678 -6.472,15.717 -7.951,13.755 -8.667,10.79 -9.361,7.917 -8.983,5.616 -7.536,3.889 -6.09,2.16 -3.578,0.864 0,0 m 4.753,20.652 c 3.871,-0.934 6.718,-2.783 8.54,-5.546 C 15.118,12.341 15.554,8.987 14.601,5.042 13.698,1.3 11.912,-1.336 9.241,-2.861 6.572,-4.388 3.38,-4.702 -0.333,-3.805 c -3.868,0.932 -6.664,2.775 -8.385,5.526 -1.72,2.751 -2.109,6.082 -1.165,9.993 0.907,3.754 2.661,6.402 5.265,7.945 2.603,1.541 5.725,1.872 9.371,0.993" /></g><g
           transform="translate(548.6191,402.2162)"
           id="g108"><path
             id="path110"
             style="fill:#343433;fill-opacity:1;fill-rule:nonzero;stroke:none"
             d="m 0,0 13.831,-1.774 c 1.347,-0.171 2.464,-0.304 3.357,-0.397 0.321,-0.028 0.534,0.091 0.638,0.354 l 0.861,1.96 0.774,-0.064 C 19.244,-1.343 19.076,-2.51 18.96,-3.423 18.846,-4.312 18.711,-5.495 18.558,-6.973 l -0.746,0.027 -0.365,2.186 c -0.052,0.309 -0.21,0.485 -0.469,0.53 -0.922,0.14 -2.056,0.298 -3.403,0.471 l -13.88,1.779 c -1.142,0.147 -2.091,0.257 -2.846,0.331 -0.298,0.026 -0.509,-0.086 -0.633,-0.337 l -0.941,-2.035 -0.74,0.058 c 0.234,1.466 0.407,2.626 0.516,3.483 0.067,0.514 0.11,1.036 0.133,1.567 L 14.979,13.162 1.784,14.853 c -1.107,0.142 -2.062,0.252 -2.863,0.333 -0.264,0.022 -0.46,-0.105 -0.589,-0.376 l -0.84,-1.946 -0.793,0.066 c 0.234,1.454 0.409,2.633 0.524,3.535 0.116,0.911 0.245,2.084 0.381,3.516 l 0.745,-0.026 0.392,-2.242 c 0.058,-0.274 0.234,-0.435 0.53,-0.484 0.75,-0.121 1.694,-0.253 2.835,-0.399 L 21.24,14.376 21.193,12.921 Z" /></g><g
           transform="translate(546.1162,433.9012)"
           id="g112"><path
             id="path114"
             style="fill:#343433;fill-opacity:1;fill-rule:nonzero;stroke:none"
             d="m 0,0 21.315,7.042 c 0.804,0.266 1.347,0.511 1.637,0.738 0.289,0.228 0.507,0.557 0.658,0.991 l 0.532,1.608 0.742,0.012 C 24.806,8.885 24.747,7.489 24.71,6.202 24.671,4.89 24.645,3.343 24.626,1.561 L 23.883,1.512 23.447,3.165 C 23.374,3.398 23.29,3.564 23.193,3.666 23.1,3.766 22.948,3.819 22.742,3.825 22.512,3.832 22.209,3.78 21.831,3.67 21.453,3.56 20.952,3.404 20.324,3.204 L 15.655,1.718 15.412,-6.595 19.965,-8.54 c 0.636,-0.26 1.142,-0.466 1.518,-0.615 0.374,-0.147 0.672,-0.227 0.891,-0.233 0.194,-0.004 0.344,0.045 0.443,0.151 0.103,0.106 0.191,0.268 0.266,0.485 l 0.512,1.591 0.778,0.011 c -0.082,-1.631 -0.139,-2.966 -0.17,-4 -0.028,-1.034 -0.047,-2.19 -0.049,-3.468 l -0.744,-0.065 -0.484,1.757 c -0.124,0.442 -0.329,0.771 -0.609,0.986 -0.282,0.214 -0.723,0.457 -1.326,0.729 L 0.206,-1.784 Z m 13.861,-5.912 0.206,7.107 -9.6,-3.086 z" /></g><g
           transform="translate(551.0596,450.5214)"
           id="g116"><path
             id="path118"
             style="fill:#343433;fill-opacity:1;fill-rule:nonzero;stroke:none"
             d="m 0,0 14.002,0.86 c 1.275,0.078 2.53,0.168 3.77,0.266 l -0.517,8.389 -4.698,1.923 -0.169,0.768 h 6.189 l 0.127,-0.096 c 0.15,-2.976 0.301,-5.728 0.456,-8.254 l 0.266,-4.322 c 0.086,-1.389 0.189,-2.812 0.314,-4.269 l -0.737,-0.115 -0.767,2.081 c -0.098,0.282 -0.286,0.425 -0.564,0.431 -0.46,-0.016 -0.973,-0.039 -1.543,-0.067 -0.567,-0.031 -1.197,-0.066 -1.886,-0.109 L 0.275,-3.372 c -0.584,-0.037 -1.113,-0.071 -1.584,-0.106 -0.469,-0.035 -0.894,-0.07 -1.272,-0.105 -0.299,-0.028 -0.484,-0.179 -0.561,-0.449 l -0.539,-2.176 -0.74,-0.08 c -0.045,1.483 -0.108,2.908 -0.191,4.275 -0.086,1.377 -0.197,2.8 -0.333,4.267 l 0.737,0.114 0.769,-2.097 C -3.354,0 -3.168,-0.137 -2.88,-0.143 c 0.402,0.014 0.989,0.04 1.76,0.081 C -0.35,-0.019 0.022,0 0,0" /></g><g
           transform="translate(566.9844,481.9857)"
           id="g120"><path
             id="path122"
             style="fill:#343433;fill-opacity:1;fill-rule:nonzero;stroke:none"
             d="m 0,0 c 0.243,-1.394 0.527,-2.933 0.856,-4.616 l -0.719,-0.195 -1.185,2.385 c -0.129,0.27 -0.331,0.388 -0.605,0.352 -0.865,-0.127 -1.966,-0.307 -3.305,-0.54 l -16.965,-2.95 1.044,-6 4.784,-0.728 0.238,-0.66 -6.009,-1.5 -0.157,0.096 c -0.44,2.795 -0.881,5.469 -1.325,8.019 l -0.788,4.539 c -0.441,2.538 -0.93,5.215 -1.468,8.028 l 0.119,0.125 6.153,-0.032 0.237,-0.658 -4.451,-1.897 1.043,-5.999 16.967,2.948 c 1.337,0.233 2.434,0.435 3.292,0.609 0.27,0.057 0.419,0.235 0.45,0.533 l 0.311,2.647 0.725,0.161 C -0.486,2.904 -0.235,1.349 0,0" /></g><g
           transform="translate(558.0869,498.6835)"
           id="g124"><path
             id="path126"
             style="fill:#343433;fill-opacity:1;fill-rule:nonzero;stroke:none"
             d="M 0,0 C 0.666,0.18 1.265,0.343 1.796,0.493 2.33,0.642 2.81,0.781 3.239,0.909 3.582,1.012 3.758,1.216 3.772,1.516 L 3.825,3.515 4.528,3.758 C 4.852,2.426 5.19,1.1 5.546,-0.223 5.908,-1.565 6.296,-2.938 6.709,-4.34 L 6.01,-4.6 4.841,-2.716 C 4.689,-2.46 4.478,-2.356 4.203,-2.405 3.756,-2.514 3.258,-2.64 2.706,-2.783 2.154,-2.924 1.547,-3.086 0.879,-3.266 l -13.512,-3.639 c -0.566,-0.154 -1.077,-0.292 -1.531,-0.421 -0.453,-0.129 -0.862,-0.247 -1.226,-0.358 -0.286,-0.087 -0.439,-0.272 -0.458,-0.551 l -0.093,-2.242 -0.707,-0.227 c -0.342,1.447 -0.698,2.85 -1.066,4.218 -0.073,0.27 -0.173,0.609 -0.302,1.022 -0.129,0.41 -0.284,0.909 -0.465,1.497 -0.187,0.601 -0.34,1.102 -0.458,1.503 -0.122,0.402 -0.213,0.719 -0.277,0.956 -0.688,2.558 -0.727,4.606 -0.118,6.143 0.611,1.538 1.833,2.552 3.666,3.047 1.655,0.445 3.114,0.367 4.377,-0.233 1.266,-0.603 2.418,-1.729 3.458,-3.383 0.875,0.998 1.73,1.928 2.562,2.794 0.834,0.865 1.596,1.663 2.286,2.399 0.69,0.736 1.293,1.4 1.812,1.999 0.517,0.596 0.911,1.128 1.179,1.592 0.137,0.241 0.252,0.474 0.34,0.699 0.088,0.226 0.146,0.453 0.181,0.684 0.033,0.229 0.053,0.466 0.057,0.711 0.007,0.247 0.005,0.517 -0.004,0.814 L 1.3,16.005 C 1.616,15.232 1.848,14.572 1.992,14.029 2.117,13.573 2.213,13.17 2.284,12.819 2.354,12.468 2.393,12.147 2.399,11.858 2.405,11.57 2.385,11.303 2.338,11.056 2.293,10.806 2.215,10.553 2.104,10.295 1.886,9.742 1.51,9.153 0.98,8.534 0.451,7.915 -0.161,7.254 -0.854,6.554 -1.547,5.854 -2.287,5.121 -3.075,4.353 -3.864,3.584 -4.625,2.793 -5.358,1.98 -5.579,1.739 -5.753,1.539 -5.875,1.379 -6,1.22 -6.086,1.057 -6.137,0.893 -6.187,0.728 -6.206,0.548 -6.187,0.354 c 0.015,-0.197 0.056,-0.442 0.125,-0.736 l 0.281,-1.175 z m -7.032,-1.895 c -0.149,0.687 -0.3,1.321 -0.455,1.897 -0.52,1.923 -1.306,3.221 -2.363,3.895 -1.058,0.674 -2.459,0.776 -4.202,0.307 -1.689,-0.456 -2.807,-1.214 -3.353,-2.281 -0.547,-1.065 -0.576,-2.507 -0.086,-4.328 0.084,-0.311 0.186,-0.642 0.303,-0.991 0.119,-0.35 0.255,-0.724 0.411,-1.122 z" /></g><g
           transform="translate(531.9668,518.0726)"
           id="g128"><path
             id="path130"
             style="fill:#343433;fill-opacity:1;fill-rule:nonzero;stroke:none"
             d="m 0,0 17.219,14.407 c 0.647,0.541 1.062,0.97 1.248,1.287 0.184,0.319 0.265,0.707 0.247,1.165 l -0.1,1.69 0.685,0.284 c 0.482,-1.426 0.944,-2.746 1.384,-3.958 0.447,-1.232 0.993,-2.681 1.632,-4.345 l -0.672,-0.319 -1.014,1.378 c -0.155,0.188 -0.294,0.31 -0.421,0.37 -0.125,0.059 -0.284,0.053 -0.479,-0.019 -0.215,-0.077 -0.479,-0.239 -0.79,-0.48 -0.31,-0.241 -0.719,-0.57 -1.228,-0.987 l -3.793,-3.104 2.841,-7.817 4.947,-0.131 c 0.689,-0.005 1.234,-0.009 1.639,-0.009 0.405,0 0.709,0.036 0.914,0.112 0.183,0.065 0.302,0.167 0.357,0.304 0.055,0.135 0.077,0.319 0.068,0.548 l -0.111,1.667 0.719,0.297 c 0.525,-1.547 0.965,-2.806 1.318,-3.781 0.354,-0.973 0.765,-2.054 1.233,-3.241 l -0.668,-0.335 -1.098,1.455 c -0.28,0.364 -0.589,0.595 -0.93,0.691 -0.341,0.096 -0.841,0.159 -1.501,0.19 L 0.85,-1.582 Z M 15.064,-0.384 12.637,6.298 4.849,-0.11 Z" /></g><g
           transform="translate(543.1221,541.4178)"
           id="g132"><path
             id="path134"
             style="fill:#343433;fill-opacity:1;fill-rule:nonzero;stroke:none"
             d="m 0,0 c 0.629,0.282 1.199,0.542 1.713,0.777 0.513,0.235 0.976,0.452 1.391,0.65 0.257,0.128 0.354,0.392 0.289,0.79 L 3.149,4.245 3.812,4.578 C 4.386,3.21 4.951,1.901 5.512,0.65 6.079,-0.619 6.679,-1.915 7.306,-3.235 L 6.656,-3.601 5.207,-1.923 C 5.017,-1.694 4.79,-1.625 4.528,-1.716 4.104,-1.894 3.629,-2.097 3.108,-2.323 2.585,-2.55 2.009,-2.806 1.379,-3.087 l -12.774,-5.712 c -0.538,-0.24 -1.017,-0.458 -1.447,-0.654 -0.429,-0.198 -0.813,-0.38 -1.154,-0.546 -0.27,-0.133 -0.391,-0.339 -0.368,-0.617 l 0.26,-2.228 -0.663,-0.335 c -0.564,1.374 -1.126,2.685 -1.683,3.934 -0.565,1.261 -1.167,2.555 -1.811,3.879 l 0.65,0.366 1.455,-1.692 c 0.176,-0.225 0.4,-0.288 0.672,-0.193 0.372,0.156 0.777,0.327 1.215,0.515 0.438,0.19 0.915,0.401 1.429,0.632 z" /></g><g
           transform="translate(526.7266,543.6537)"
           id="g136"><path
             id="path138"
             style="fill:#343433;fill-opacity:1;fill-rule:nonzero;stroke:none"
             d="m 0,0 12.26,6.642 c 1.193,0.645 2.178,1.193 2.957,1.64 0.277,0.164 0.38,0.385 0.31,0.66 l -0.448,2.093 0.666,0.401 c 0.654,-1.282 1.202,-2.326 1.64,-3.135 0.428,-0.789 1.011,-1.829 1.747,-3.116 L 18.513,4.77 16.941,6.333 C 16.716,6.552 16.485,6.603 16.248,6.486 15.419,6.063 14.407,5.528 13.214,4.882 L 0.909,-1.786 C -0.103,-2.334 -0.936,-2.798 -1.594,-3.18 -1.852,-3.333 -1.958,-3.548 -1.913,-3.824 l 0.43,-2.202 -0.636,-0.385 c -0.668,1.328 -1.206,2.371 -1.616,3.129 -0.247,0.456 -0.518,0.905 -0.81,1.349 l 9.01,21.365 -11.697,-6.337 c -0.981,-0.532 -1.821,-0.999 -2.518,-1.404 -0.227,-0.135 -0.313,-0.352 -0.257,-0.648 l 0.455,-2.07 -0.682,-0.409 c -0.66,1.316 -1.207,2.375 -1.641,3.174 -0.438,0.809 -1.02,1.835 -1.745,3.077 l 0.619,0.414 1.627,-1.59 c 0.208,-0.19 0.445,-0.217 0.713,-0.086 0.679,0.343 1.524,0.786 2.536,1.334 l 16.961,9.192 0.811,-1.21 z" /></g><g
           transform="translate(510.3682,562.4564)"
           id="g140"><path
             id="path142"
             style="fill:#343433;fill-opacity:1;fill-rule:nonzero;stroke:none"
             d="m 0,0 -2.328,3.488 c -1.43,2.142 -2.961,4.392 -4.589,6.75 l 0.057,0.161 4.99,2.13 0.484,-0.507 L -4.107,8.918 0.318,2.289 8.213,7.557 7.341,8.863 c -0.665,0.995 -1.415,2.098 -2.253,3.31 -0.173,0.244 -0.406,0.323 -0.696,0.239 l -2.275,-0.79 -0.546,0.755 c 1.36,0.865 2.359,1.513 3,1.94 0.621,0.415 1.588,1.081 2.9,1.998 L 8.045,15.578 6.423,13.749 C 6.227,13.506 6.196,13.271 6.333,13.046 7.145,11.789 7.886,10.659 8.557,9.653 l 0.862,-1.291 5.223,3.486 c 1.062,0.71 2.103,1.419 3.125,2.128 l -4.601,6.888 -4.812,-0.682 -0.547,0.57 5.207,3.016 0.167,-0.033 c 1.625,-2.497 3.136,-4.792 4.535,-6.888 l 2.28,-3.415 c 0.773,-1.159 1.579,-2.336 2.42,-3.531 l -0.579,-0.47 -1.71,1.412 c -0.227,0.194 -0.462,0.225 -0.703,0.09 -0.391,-0.245 -0.821,-0.525 -1.3,-0.836 C 17.648,9.786 17.123,9.439 16.549,9.055 L 4.908,1.285 C 4.422,0.96 3.982,0.664 3.595,0.396 3.204,0.131 2.854,-0.113 2.546,-0.333 2.303,-0.509 2.217,-0.732 2.289,-1.003 L 2.916,-3.157 2.319,-3.597 C 1.532,-2.338 0.76,-1.138 0,0" /></g><g
           transform="translate(513.4561,590.6512)"
           id="g144"><path
             id="path146"
             style="fill:#343433;fill-opacity:1;fill-rule:nonzero;stroke:none"
             d="M 0,0 C 0.537,0.431 1.02,0.823 1.446,1.173 1.874,1.524 2.258,1.845 2.602,2.135 2.871,2.366 2.953,2.624 2.845,2.906 L 2.088,4.755 2.634,5.26 C 3.464,4.173 4.31,3.094 5.166,2.027 6.038,0.942 6.946,-0.158 7.888,-1.275 L 7.353,-1.794 5.525,-0.54 C 5.282,-0.366 5.048,-0.358 4.816,-0.511 4.451,-0.791 4.044,-1.108 3.597,-1.459 3.149,-1.813 2.656,-2.205 2.119,-2.636 l -10.906,-8.769 c -0.456,-0.368 -0.867,-0.701 -1.233,-1.002 -0.364,-0.3 -0.688,-0.574 -0.978,-0.819 -0.226,-0.198 -0.291,-0.427 -0.196,-0.691 l 0.815,-2.09 -0.557,-0.491 c -0.894,1.185 -1.783,2.33 -2.67,3.434 -0.176,0.216 -0.405,0.488 -0.687,0.811 -0.284,0.325 -0.627,0.719 -1.031,1.185 -0.411,0.476 -0.753,0.873 -1.025,1.192 -0.269,0.318 -0.482,0.574 -0.635,0.764 -1.662,2.064 -2.522,3.923 -2.581,5.576 -0.059,1.654 0.652,3.074 2.131,4.264 1.334,1.074 2.704,1.589 4.102,1.546 1.399,-0.041 2.908,-0.609 4.524,-1.702 0.401,1.265 0.809,2.46 1.224,3.586 0.415,1.126 0.791,2.167 1.126,3.117 0.335,0.95 0.619,1.802 0.854,2.558 0.236,0.754 0.38,1.398 0.44,1.934 0.028,0.274 0.039,0.533 0.028,0.774 -0.01,0.243 -0.047,0.476 -0.108,0.699 -0.062,0.225 -0.139,0.449 -0.233,0.677 -0.094,0.226 -0.205,0.474 -0.331,0.741 l 0.56,0.517 c 0.599,-0.582 1.075,-1.091 1.429,-1.53 0.296,-0.368 0.548,-0.699 0.752,-0.992 0.206,-0.292 0.372,-0.57 0.492,-0.831 0.123,-0.262 0.211,-0.515 0.267,-0.76 0.058,-0.248 0.09,-0.509 0.095,-0.791 C -2.193,9.676 -2.299,8.987 -2.536,8.207 -2.771,7.426 -3.065,6.576 -3.419,5.656 -3.771,4.737 -4.154,3.766 -4.567,2.746 -4.979,1.727 -5.358,0.697 -5.701,-0.344 c -0.107,-0.308 -0.185,-0.562 -0.234,-0.758 -0.046,-0.196 -0.063,-0.38 -0.043,-0.551 0.021,-0.172 0.076,-0.344 0.17,-0.515 0.094,-0.172 0.231,-0.378 0.412,-0.622 l 0.73,-0.962 z m -5.675,-4.563 c -0.413,0.568 -0.807,1.084 -1.181,1.551 -1.247,1.551 -2.49,2.423 -3.73,2.616 -1.238,0.191 -2.562,-0.279 -3.971,-1.411 -1.36,-1.095 -2.08,-2.241 -2.151,-3.435 -0.073,-1.195 0.482,-2.528 1.663,-3.999 0.202,-0.249 0.428,-0.513 0.677,-0.785 0.249,-0.272 0.523,-0.56 0.825,-0.862 z" /></g><g
           transform="translate(402.2012,231.3187)"
           id="g148"><path
             id="path150"
             style="fill:#343433;fill-opacity:1;fill-rule:evenodd;stroke:none"
             d="m 0,0 c 0.297,7.423 0.374,15.192 -0.034,18.102 -1.051,7.474 -3.28,14.89 -5.912,22.123 -0.009,0.019 -0.234,0.641 -0.243,0.666 -0.161,0.396 -0.324,0.79 -0.485,1.185 l -0.568,1.147 c -1.445,2.673 -2.409,5.603 -3.272,8.535 l 0.031,0.139 c 2.229,9.918 5.037,19.869 8.932,29.292 l 5.974,-5.75 c 6.805,-8.539 13.658,-17.05 20.602,-25.5 4.888,-5.949 9.736,-11.914 15.004,-17.663 0.081,-0.226 0.163,-0.452 0.249,-0.675 0.199,-0.511 0.485,-1.163 0.485,-1.163 0.196,-0.446 0.697,-3.527 0.697,-3.527 l 0.266,-3.003 C 28.79,14.519 14.813,6.48 0,0 m -243.608,367.016 85.466,-14.485 v -0.02 c -1.036,-13.158 -0.888,-26.433 0.661,-39.61 l -0.013,0.108 0.007,-0.073 c 0.952,-11.144 2.241,-22.297 4.028,-33.443 3.467,-21.635 8.932,-43.431 16.335,-64.169 l -0.041,-0.064 c -7.732,-11.492 -14.543,-23.4 -20.347,-35.8 -0.73,-1.562 -1.396,-3.151 -2.162,-4.696 -3.872,-7.809 -7.287,-15.872 -10.162,-24.137 -6.536,-18.768 -10.085,-38.522 -10.194,-58.231 -0.053,-9.418 0.64,-18.547 2.035,-27.678 0.205,-1.337 0.695,-7.643 0.695,-7.643 l 0.44,-9.998 c 0,0 -0.049,-2.87 -0.135,-3.411 -0.105,-0.643 -0.209,-1.285 -0.313,-1.927 l -0.002,-0.006 c -0.147,-0.552 -0.319,-1.099 -0.511,-1.638 -0.981,-2.733 -2.145,-5.392 -3.219,-8.087 -0.026,-0.068 -0.055,-0.134 -0.081,-0.201 -1.073,-2.583 -2.702,-4.773 -4.265,-7.018 -1.743,-2.529 -3.263,-5.239 -4.498,-8.076 -0.224,-0.521 -0.515,-1.232 -0.515,-1.232 -0.237,-0.594 -0.472,-1.225 -0.472,-1.225 -0.159,-0.432 -0.329,-0.916 -0.329,-0.916 -0.56,-1.616 -1.03,-3.265 -1.418,-4.936 l -0.174,-0.789 c -0.061,-0.293 -0.12,-0.586 -0.178,-0.88 -71.391,37.375 -120.153,112.181 -120.153,198.283 0,63.718 26.701,121.246 69.515,161.998 m 312.872,-4.49 c 40.125,-40.435 64.929,-96.097 64.929,-157.508 0,-49.956 -16.416,-96.112 -44.142,-133.358 -0.928,3.379 -1.786,6.795 -2.645,10.198 -4.477,17.724 -8.415,35.779 -12.156,53.778 -0.387,1.866 -0.759,3.686 -1.335,5.438 l -15.831,42.411 -5.046,14.082 20.397,13.784 c 0.296,0.205 0.877,0.619 1.353,1 0.023,0.018 0.259,0.214 0.281,0.233 0.045,0.034 0.309,0.259 0.327,0.275 0,0 0.558,0.499 0.965,0.892 l 0.141,0.14 c 0.491,0.491 0.963,1.014 1.406,1.555 0.027,0.035 0.253,0.317 0.253,0.317 0,0 0.46,0.597 0.781,1.063 0.388,0.562 0.287,0.425 0.397,0.599 0.099,0.155 0.198,0.312 0.292,0.47 0.29,0.48 0.692,1.24 0.692,1.24 0.246,0.474 0.469,0.963 0.681,1.455 l 4.152,10.005 c 0.007,0.014 0.013,0.029 0.019,0.043 0.224,0.531 0.507,1.034 0.844,1.5 0.164,0.223 0.331,0.437 0.568,0.693 0.714,0.766 1.574,1.294 2.426,1.845 0.598,0.388 1.197,0.777 1.794,1.169 1.226,0.811 3.306,2.334 4.045,2.959 3.761,3.197 7.168,6.885 10.002,10.962 0.388,0.556 0.799,1.185 0.799,1.185 2.022,3.086 3.67,6.415 4.868,9.891 l 0.104,0.319 c 0.667,2.019 1.148,4.105 1.464,6.208 0,0 0.051,0.361 0.088,0.648 0,0 0.071,0.59 0.112,1.024 0,0 0.034,0.377 0.057,0.649 0,0 0.016,0.225 0.031,0.432 l 0.012,0.214 c 0.051,0.881 0.069,1.766 0.051,2.643 -0.041,1.881 -0.243,3.739 -0.635,5.568 -0.166,0.77 -0.7,2.603 -0.7,2.603 -0.832,2.602 -2.045,4.966 -3.613,7.108 -0.067,0.092 -0.302,0.403 -0.302,0.403 -1.069,1.401 -2.294,2.683 -3.641,3.821 -0.313,0.264 -0.709,0.576 -0.709,0.576 -4.756,3.719 -10.788,5.493 -16.852,5.693 l -0.263,0.027 c -3.732,7.588 -8.789,14.54 -14.943,20.364 -0.503,0.474 -1.103,1.011 -1.103,1.011 -2.078,1.846 -4.323,3.514 -6.693,4.972 -0.76,0.468 -1.537,0.916 -2.321,1.341 -0.681,0.366 -1.436,0.744 -1.436,0.744 -2.252,1.118 -4.584,2.058 -7.014,2.818 0.417,0.288 0.825,0.586 1.225,0.895 0,0 0.322,0.251 0.555,0.439 0,0 0.294,0.243 0.531,0.446 0,0 0.158,0.132 0.521,0.458 l 0.499,0.46 c 0.475,0.449 0.933,0.917 1.377,1.401 0.231,0.251 0.54,0.607 0.54,0.607 0.565,0.654 1.186,1.472 1.186,1.472 0.714,0.946 1.364,1.941 1.949,2.971 0.423,0.744 0.833,1.586 0.833,1.586 0.613,1.248 1.108,2.556 1.619,3.854 2.334,5.905 4.401,11.879 6.214,17.909 M -76.674,340.922 c 0.133,-0.778 0.243,-1.563 0.329,-2.35 l 0.015,-0.118 c 0.455,-4.321 0.219,-8.649 0.17,-13.044 v -0.048 c 0.155,-0.175 0.312,-0.351 0.468,-0.529 6.831,-7.734 13.433,-15.854 19.221,-24.561 1.68,-2.528 3.304,-5.093 4.878,-7.688 4.422,-0.771 8.783,-1.757 12.983,-3.27 2.368,2.469 4.739,4.936 7.107,7.404 0.155,0.161 0.363,0.429 0.363,0.429 0.023,0.029 0.043,0.06 0.066,0.09 0.394,0.566 0.63,1.239 0.691,1.935 0.5,6.55 0.897,13.108 1.371,19.661 0.021,0.294 0.033,0.442 0.057,0.706 0.123,1.314 0.323,2.642 0.593,3.898 0,0 0.19,0.887 0.398,1.668 0.372,1.404 0.83,2.779 1.384,4.126 0,0 0.312,0.76 0.629,1.445 0.196,0.427 0.407,0.85 0.619,1.269 l 0.022,0.043 -0.503,0.083 -47.233,7.844 c -0.503,0.106 -1.012,0.189 -1.511,0.318 -1.146,0.295 -1.246,0.356 -2.121,0.707 0.002,-0.006 0.002,-0.012 0.004,-0.018" /></g><g
           transform="translate(162.2798,753.869)"
           id="g152"><path
             id="path154"
             style="fill:#343433;fill-opacity:1;fill-rule:evenodd;stroke:none"
             d="m 0,0 c 0,0 91.19,-15.599 106.862,-18.28 1.302,-0.22 2.232,-1.383 2.162,-2.701 -2.446,-46.707 -9.641,-90.368 -20.511,-131.057 -0.245,-0.92 -1.15,-1.5 -2.086,-1.34 C 72.715,-151.055 -21.65,-135.06 -21.65,-135.06 -4.052,-112.35 8.182,-8.168 0,0" /></g><g
           transform="translate(352.8984,720.0848)"
           id="g156"><path
             id="path158"
             style="fill:#343433;fill-opacity:1;fill-rule:evenodd;stroke:none"
             d="m 0,0 c 0,0 90.192,-13.974 100.923,-15.635 0.609,-0.094 1.075,-0.594 1.124,-1.21 4.04,-50.463 -0.348,-93.065 -17.215,-131.203 -0.342,-0.767 -1.159,-1.206 -1.986,-1.069 -12.521,2.078 -104.556,17.362 -104.556,17.362 C -2.36,-122.179 11.291,-10.24 0,0" /></g><g
           transform="translate(273.4336,721.9344)"
           id="g160"><path
             id="path162"
             style="fill:#343433;fill-opacity:1;fill-rule:evenodd;stroke:none"
             d="m 0,0 c 2.667,-5.755 2.538,-20.648 -0.67,-38.688 -1.754,-9.854 -3.811,-24.511 -5.175,-34.318 -2.231,-16.029 -7.176,-30.978 -11.711,-39.021 8.773,34.965 14.834,72.08 17.53,111.393 C -0.014,-0.421 -0.004,-0.208 0,0" /></g><g
           transform="translate(457.3711,700.0848)"
           id="g164"><path
             id="path166"
             style="fill:#343433;fill-opacity:1;fill-rule:evenodd;stroke:none"
             d="m 0,0 c 3.079,-0.703 5.391,-3.317 5.673,-6.507 3.425,-39.992 -0.711,-78.214 -15.139,-113.656 -1.502,-3.641 -4.939,-6.022 -8.755,-6.251 1.525,1.083 2.759,2.596 3.507,4.423 C -0.46,-86.634 3.509,-47.382 0.305,-1.631 0.264,-1.069 0.161,-0.521 0,0" /></g><g
           transform="translate(312.7393,654.3422)"
           id="g168"><path
             id="path170"
             style="fill:#343433;fill-opacity:1;fill-rule:evenodd;stroke:none"
             d="m 0,0 c 0.447,0.006 0.881,0.243 0.881,0.243 0.752,0.603 1.551,1.208 1.551,1.208 1.214,0.924 2.503,1.845 3.903,2.581 0.082,0.043 0.094,0.049 0.307,0.155 0.543,0.266 0.866,0.484 1.34,0.957 0,0 0.446,0.504 0.536,0.619 L 8.834,6.2 c 0.198,0.292 0.121,-0.084 0.157,-0.286 0,0 0.146,-0.842 0.243,-1.467 0,0 0.056,-0.354 0.115,-0.787 C 9.386,3.388 9.425,3.085 9.451,2.82 9.49,2.46 9.479,2.593 9.504,2.293 9.529,1.956 9.541,1.543 9.541,1.543 9.55,1.191 9.529,1.132 9.522,0.983 c 0,0 -0.041,-0.56 -0.085,-0.967 C 9.414,-0.196 9.396,-0.321 9.354,-0.648 L 9.178,-1.676 C 9.145,-1.854 9.145,-1.911 8.981,-2.593 8.959,-2.683 8.937,-2.771 8.914,-2.861 L 8.693,-3.672 C 8.624,-3.916 8.632,-3.919 8.364,-4.719 c 0,0 -0.157,-0.443 -0.278,-0.764 0,0 -0.186,-0.482 -0.331,-0.829 L 7.289,-7.354 C 7.205,-7.524 7.193,-7.565 7.021,-7.9 6.986,-7.968 6.952,-8.035 6.919,-8.103 L 6.905,-8.129 6.887,-8.166 6.874,-8.188 6.864,-8.209 6.846,-8.244 6.811,-8.309 6.799,-8.333 6.795,-8.342 C 6.713,-8.497 6.629,-8.654 6.545,-8.808 L 6.043,-9.68 c -0.888,-1.5 -1.995,-3.017 -3.254,-4.406 -0.067,-0.076 -0.137,-0.147 -0.206,-0.217 -2.007,-1.751 -4.371,-2.93 -7.01,-3.674 -6.322,-18.895 -9.103,-36.269 -1.554,-66.575 1.453,-5.828 -0.331,-15.114 1.047,-21.22 -0.784,0.419 -1.459,0.834 -1.955,1.249 0.535,-1.23 2.883,-2.918 5.275,-4.939 3.619,-4.057 9.557,-10.917 14.404,-17.51 4.549,-6.19 8.22,-12.169 10.528,-16.076 1.697,-3.94 3.162,-6.041 2.962,-4.624 11.045,-1.772 16.447,-2.369 24.729,-6.902 l 2.28,-1.126 c -0.049,-0.435 -0.305,-0.782 -0.683,-1.079 0.387,0.105 0.791,0.348 1.223,0.781 l 16.461,16.481 c 3.549,3.695 5.689,8.52 6.044,13.631 0.393,5.623 0.926,13.279 1.372,19.662 0.502,7.212 5.574,12.836 12.257,15.595 0.543,0.223 1.091,0.431 1.635,0.627 0.259,0.039 0.568,0.108 0.927,0.205 0.004,0.002 0.006,0.002 0.01,0.004 0.144,0.041 3.056,0.911 3.234,0.958 1.716,0.441 1.305,0.024 0.365,-0.374 0,0 -3.406,-1.209 -4.847,-1.528 -0.564,-0.127 0.795,-1.159 1.332,-1.033 0.926,0.221 5.183,1.666 5.183,1.666 1.204,0.321 2.089,0.282 0.256,-0.638 l -2.991,-1.068 c -0.651,-0.362 -0.629,-0.617 -0.355,-0.848 0.129,-0.223 0.37,-0.317 1.118,-0.217 0.502,0.117 1.598,0.458 2.973,0.993 1.374,0.485 2.328,1.097 2.71,1.882 3.006,-3.701 7.756,-9.625 10.849,-13.238 2.943,-3.433 7.153,-5.528 11.666,-5.802 1.637,-0.1 3.421,-0.208 5.191,-0.314 7.337,-0.446 14.258,-3.554 19.463,-8.742 0.08,-0.08 0.159,-0.158 0.237,-0.237 5.134,-5.115 9.204,-11.193 11.979,-17.888 l 1.742,-4.199 c 0.843,-2.981 1.61,-7.118 1.017,-11.14 1.21,2.457 1.604,4.919 1.557,7.169 7.659,2.042 19.444,3.501 19.296,-7.569 -0.129,-9.619 -8.649,-17.591 -11.561,-20.037 -0.509,-0.415 -1.042,-0.801 -1.594,-1.159 -0.691,-0.469 -1.915,-1.261 -3.27,-2.135 -4.334,-2.8 -7.716,-6.85 -9.694,-11.618 -1.596,-3.845 -3.378,-8.139 -4.145,-9.985 -0.251,-0.604 -0.674,-1.121 -1.216,-1.487 -3.206,-2.166 -14.918,-10.081 -21.494,-14.526 -3.349,-2.262 -5.901,-5.521 -7.295,-9.316 -2.031,-2.031 -3.668,-5.779 -4.72,-10.009 1.17,2.233 2.545,3.927 4.005,5.255 l 5.367,-15.193 17.929,-48.038 c 0,0 13.447,-65.918 20.389,-82.724 l 0.595,-0.827 5.795,-9 5.797,-9.762 3.509,-6.408 4.059,-16.142 c 0.075,-0.527 0.043,-0.997 -0.078,-1.412 -0.045,-0.153 0.302,-1.179 0.16,-2.143 -0.058,-0.398 -0.158,-0.801 -0.271,-1.172 -0.114,-0.336 -0.606,-0.392 -0.655,0.114 -0.207,0.81 -0.677,1.524 -1.322,1.238 -1.738,-0.771 -4.298,0.134 -5.545,2.258 -2.529,7.932 -6.014,10.762 -6.014,10.762 -4.629,5.124 -11.248,6.651 -12.365,2.939 -0.151,-0.502 0.006,-2.149 0.143,-3.75 0.065,-0.771 0.085,-2.547 -0.186,-4.008 -0.235,-1.263 -0.752,-2.235 -0.881,-2.754 -0.127,-0.504 -0.809,-1.413 -1.459,-1.615 l -1.116,-2.271 c -0.568,-0.972 -1.242,-0.942 -2.025,0.091 l -1.146,1.779 -1.266,0.497 c -2.127,0.833 -3.815,8.309 -3.688,10.809 l -0.668,7.374 -0.916,4.415 -0.778,3.011 c -0.343,0.597 -0.618,1.253 -0.814,1.972 -0.2,0.733 -0.181,1.497 -0.43,2.135 -0.217,2.167 -0.105,4.569 0.541,7.254 -1.012,-1.968 -1.631,-3.854 -1.964,-5.639 -7.737,7.818 -37.415,45.172 -37.415,45.172 l -22.454,21.611 c 0.78,2.436 1.702,4.729 2.709,6.744 -0.45,0.38 -2.12,-1.433 -4.097,-5.409 l -0.058,0.052 c -10.624,-15.965 -17.591,-34.443 -22.793,-59.449 0.167,-0.509 0.781,-3.096 1.828,-6.397 0.995,-3.134 2.379,-6.912 4.147,-10.171 4.958,-13.521 8.08,-24.781 4.238,-47.674 -1.034,-27.845 -2.456,-59.583 3.425,-84.894 0.102,-0.439 3.971,-4.442 5.972,-6.989 2.493,-3.174 3.161,-5.076 2.54,-6.504 0.01,-0.355 -0.305,-1.745 -1.243,-3.426 0.086,-0.321 0.162,-0.654 0.223,-0.997 0.57,-3.155 -0.166,-5.933 -1.641,-6.199 -1.085,-0.195 -2.268,1.02 -3.044,2.93 -0.026,0.054 -0.052,0.11 -0.081,0.167 0.006,-0.038 0.01,-0.1 0.017,-0.173 0.165,-2.151 -0.383,-3.851 -1.477,-4.148 -0.849,-0.232 -1.835,0.425 -2.68,1.63 l -0.012,0.017 c -0.039,0.057 -0.078,0.114 -0.116,0.173 -0.454,0.659 -0.738,0.89 -0.892,0.85 -0.077,-0.019 -0.079,-0.119 -0.052,-0.328 0.383,-2.365 -0.084,-4.321 -1.249,-4.687 -1.153,-0.361 -2.638,0.945 -3.674,3.069 -0.221,0.453 -0.937,1.249 -1.118,1.248 -0.021,0 -0.031,-0.036 -0.036,-0.096 0.034,-0.296 0.052,-0.585 0.058,-0.863 0.015,-0.169 0.021,-0.291 0,-0.29 -0.024,-1.56 -0.507,-2.726 -1.377,-3 -1.225,-0.386 -2.826,1.113 -3.864,3.473 -0.364,0.706 -0.728,1.093 -0.883,1.12 -0.027,0.004 -0.043,-0.002 -0.054,-0.018 0.006,-0.093 0.011,-0.186 0.013,-0.278 0.016,-0.161 0.028,-0.384 -0.02,-0.66 -0.09,-1.093 -0.479,-1.896 -1.151,-2.16 -1.189,-0.471 -2.884,0.896 -4.09,3.159 -0.008,0.002 -0.017,0.01 -0.028,0.025 -0.243,0.366 -0.578,0.528 -0.771,0.594 -1.92,0.656 -3.755,1.402 -5.576,2.161 -3.772,1.573 -6.349,4.163 -6.832,4.629 l -2.349,4.919 c 0,0 -0.561,3.633 -0.83,5.383 -0.094,0.614 -0.15,1.233 -0.164,1.854 -0.029,1.247 -0.078,3.465 -0.11,4.903 -0.02,0.912 -0.115,1.822 -0.282,2.719 -0.2,1.072 -0.464,2.49 -0.581,3.115 -0.038,0.212 -0.085,0.422 -0.141,0.631 l -1.678,6.503 c 3.493,-3.46 4.452,-5.636 6.425,-9.275 0,0 -0.389,5.748 -7.846,13.109 -0.052,0.05 -0.118,0.089 -0.193,0.119 l -0.02,0.019 c -1.617,1.496 -5.116,4.732 -5.116,4.732 0,0 -4.932,4.758 -6.498,6.267 -0.312,0.302 -0.643,0.583 -0.993,0.842 -1.294,0.957 -4.582,3.395 -5.379,3.984 -0.116,0.087 -0.23,0.177 -0.342,0.27 -1.337,1.104 -10.268,8.486 -13.364,11.045 -0.694,0.573 -1.509,0.978 -2.386,1.182 -0.879,0.205 -1.796,0.173 -2.659,-0.093 -2.99,-0.921 -10.181,-3.138 -12.129,-3.738 -0.326,-0.101 -0.649,-0.223 -0.96,-0.367 -1.109,-0.51 -3.903,-1.794 -5.256,-2.416 -0.505,-0.231 -0.981,-0.515 -1.424,-0.849 l -2.383,-1.79 c 3.178,6.076 3.692,11.005 3.692,11.005 -1.43,-3.989 -3.418,-8.469 -7.303,-13.412 -0.999,-1.269 -5.889,-7.45 -5.889,-7.45 -0.274,-0.35 -0.477,-0.752 -0.595,-1.182 -2.173,-2.095 -3.859,-10.987 -3.997,-15.206 -0.05,-1.45 1.259,-3.994 1.259,-3.994 0.603,-1.326 0.893,-2.466 0.925,-3.45 -1.075,-2.317 -0.801,-3.498 -0.601,-4.621 0,0 0,-0.014 0.003,-0.038 0.159,-1.984 -0.121,-3.977 -0.82,-5.839 -0.462,-1.232 -0.911,-2.43 -0.961,-2.563 -0.003,-0.009 -0.005,-0.017 -0.01,-0.026 -0.035,-0.093 -0.259,-0.69 -0.464,-1.229 -0.204,-0.541 -2.785,-3.21 -5.55,-3.457 -1.626,-0.146 -2.944,-2.473 -4.015,-2.911 -2.011,-0.821 -3.84,-0.627 -4.639,-0.757 -0.388,-0.064 -3.43,-0.559 -3.811,-0.574 -0.176,-0.007 -1.627,-0.121 -2.97,-0.671 -1.416,-0.583 -3.3,-1.397 -5.534,-2.167 -0.756,-0.261 -3.909,-2.416 -4.728,-3.171 -2.199,-2.028 -3.409,-2.649 -4.369,-1.607 -0.669,0.726 -1.043,2.068 -0.464,3.5 0.09,0.305 0.143,0.559 0.026,0.552 -0.196,-0.011 -1.308,-1.111 -1.565,-1.443 l -0.025,-0.033 c -0.006,-0.008 -0.012,-0.016 -0.016,-0.023 h -0.002 c -0.1,-0.134 -0.201,-0.266 -0.301,-0.396 -1.826,-2.368 -2.914,-3.184 -4.035,-2.319 -0.718,0.553 -1.276,1.656 -1.11,2.999 0.004,0.046 0.01,0.093 0.018,0.141 0.029,0.174 0.068,0.352 0.121,0.533 0.075,0.309 0.123,0.554 -0.027,0.576 -0.221,0.033 -1.154,-0.6 -1.577,-1.058 l -0.031,-0.035 c -2.117,-2.375 -3.333,-3.158 -4.457,-2.154 -0.721,0.643 -1.232,1.865 -0.946,3.286 h -0.002 c 0.094,0.502 0.237,1.212 0.055,1.249 -0.153,0.03 -0.544,-0.326 -0.891,-0.686 -0.088,-0.095 -0.174,-0.186 -0.257,-0.274 -0.019,-0.019 -0.035,-0.038 -0.052,-0.056 h -0.001 c -1.638,-1.708 -2.631,-2.231 -3.464,-1.489 -0.732,0.652 -1.128,2.089 -0.338,3.787 0.017,0.077 0.017,0.128 -0.012,0.145 -0.19,0.107 -0.878,-0.407 -1.29,-0.695 -1.871,-1.702 -2.944,-2.204 -3.727,-1.385 -0.875,0.914 -1.063,3.126 1.235,5.326 0.206,0.197 0.427,0.388 0.656,0.57 0.496,1.277 1.45,2.972 3.053,4.613 2.458,2.517 6.596,4.882 9.096,6.002 4.317,1.82 8.885,4.738 10.436,7.15 l 0.196,2.605 -2.724,6.097 c 0,0 -6.738,7.188 -10.61,15.872 -3.137,7.032 -3.529,15.708 -3.752,17.127 -0.495,3.172 0.742,8.034 0.742,8.034 0,0 1.706,10.051 2.131,12.552 0.063,0.372 0.121,0.745 0.172,1.119 0.19,1.415 0.701,5.199 1.05,7.798 0.237,1.755 0.343,3.526 0.319,5.296 -0.071,4.763 -0.209,14.256 -0.209,14.256 0,0 0.564,3.435 1.124,6.845 0.726,4.402 2.426,8.587 4.979,12.246 0.639,0.916 1.289,1.846 1.888,2.707 1.755,2.515 3.216,5.224 4.355,8.073 0.901,2.252 2.008,5.025 2.95,7.379 1.337,3.343 2.203,6.854 2.579,10.433 0.031,0.287 0.061,0.578 0.092,0.872 3.109,-6.165 7.862,-12.825 15.098,-18.114 4.608,-3.368 -12.122,12.908 -14.932,31.604 -0.057,0.792 -0.113,1.39 -0.164,1.636 -7.647,37.394 -2.109,73.792 15.594,109.246 5.653,12.655 12.836,26.351 24.66,43.204 2.017,2.947 8.36,11.272 10.212,13.422 -0.342,-0.239 -3.196,-1.778 -5.295,-3.717 -2.405,-2.224 -4.067,-4.854 -4.134,-4.68 -13.543,35.756 -19.091,68.512 -21.774,100.195 -3.043,25.569 -0.962,55.531 11.663,98.727 0.243,2.089 0.723,3.965 1.646,5.446 0.409,0.344 0.826,0.677 1.249,1 0.427,0.324 0.862,0.641 1.308,0.944 0.086,0.059 0.086,0.057 0.172,0.116 0.38,0.254 0.768,0.499 1.16,0.734 0,0 0.194,0.114 0.374,0.217 0.734,0.418 1.496,0.78 2.271,1.075 l 0.022,0.008 0.102,0.039 0.102,0.036 0.103,0.037 0.104,0.037 0.102,0.035 0.102,0.034 0.102,0.033 0.104,0.033 0.103,0.032 0.104,0.031 0.102,0.031 0.105,0.028 0.102,0.029 0.104,0.028 0.104,0.029 0.102,0.025 0.105,0.026 0.104,0.025 0.104,0.024 0.102,0.023 0.104,0.022 0.105,0.021 0.102,0.02 0.104,0.021 0.104,0.018 0.116,0.02 0.101,0.017 0.102,0.016 0.1,0.014 0.014,0.003 c 0.095,0.014 0.186,0.026 0.28,0.036 l 0.115,0.014 0.104,0.011 0.102,0.01 0.102,0.01 0.104,0.008 0.102,0.009 0.103,0.006 0.104,0.006 0.102,0.004 0.103,0.004 0.102,0.002 0.102,0.002 0.063,0.002 h 0.098 0.021 0.02 0.031 0.028 0.021 0.022 l 0.029,-0.002 h 0.027 0.022 0.024 0.027 l 0.025,-0.002 h 0.024 0.025 l 0.024,-0.002 h 0.027 l 0.024,-0.002 h 0.027 l 0.022,-0.002 h 0.025 l 0.026,-0.002 h 0.027 l 0.022,-0.002 h 0.023 l 0.026,-0.002 0.029,-0.002 0.02,-0.002 h 0.021 l 0.031,-0.002 0.028,-0.002 0.02,-0.002 h 0.019 l 0.031,-0.005 0.03,-0.002 h 0.019 l 0.018,-0.002 0.033,-0.001 0.031,-0.005 0.016,-0.002 h 0.018 l 0.033,-0.004 0.033,-0.002 0.014,-0.002 0.016,-0.002 0.035,-0.004 0.035,-0.002 0.014,-0.002 0.012,-0.002 0.037,-0.004 0.035,-0.005 0.012,-0.002 h 0.014 l 0.037,-0.005 0.037,-0.005 h 0.01 l 0.012,-0.002 0.039,-0.006 0.037,-0.004 0.01,-0.002 0.011,-0.002 0.04,-0.004 0.037,-0.006 0.008,-0.002 h 0.01 l 0.041,-0.008 0.039,-0.004 0.008,-0.003 0.007,-0.002 0.045,-0.006 0.038,-0.006 0.006,-0.002 h 0.007 l 0.047,-0.008 0.038,-0.009 h 0.005 l 0.006,-0.001 0.046,-0.008 0.039,-0.009 h 0.004 0.005 l 0.053,-0.01 0.037,-0.008 h 0.003 l 0.062,-0.012 0.031,-0.009 h 0.002 c 0.03,-0.005 0.063,-0.012 0.093,-0.02 l 0.095,-0.02 0.002,-0.003 0.032,-0.007 0.059,-0.013 0.005,-0.002 0.036,-0.01 0.052,-0.013 h 0.004 l 0.004,-0.001 0.037,-0.011 0.047,-0.012 0.006,-0.002 h 0.004 l 0.036,-0.01 0.045,-0.012 0.009,-0.002 0.006,-0.002 0.037,-0.011 0.041,-0.012 0.007,-0.002 0.009,-0.002 0.034,-0.01 0.041,-0.013 0.011,-0.003 0.008,-0.002 0.035,-0.011 0.038,-0.012 0.01,-0.004 0.011,-0.002 0.032,-0.012 0.037,-0.013 0.013,-0.002 0.01,-0.004 0.032,-0.012 0.037,-0.01 0.013,-0.006 0.012,-0.005 0.031,-0.01 0.034,-0.012 0.014,-0.004 0.013,-0.004 0.03,-0.013 0.033,-0.01 0.014,-0.006 0.015,-0.006 0.028,-0.01 0.033,-0.013 0.015,-0.005 0.016,-0.007 0.028,-0.01 0.029,-0.01 0.018,-0.008 0.016,-0.006 0.027,-0.011 0.027,-0.012 0.018,-0.006 0.019,-0.008 0.024,-0.01 0.029,-0.011 0.018,-0.008 0.019,-0.008 0.024,-0.01 0.026,-0.013 0.021,-0.008 0.018,-0.008 0.025,-0.01 0.022,-0.01 0.023,-0.011 0.02,-0.01 0.023,-0.01 0.022,-0.01 0.023,-0.011 0.022,-0.01 0.021,-0.008 0.02,-0.01 0.025,-0.012 0.022,-0.01 0.021,-0.011 0.018,-0.01 0.026,-0.012 0.023,-0.01 0.018,-0.011 0.019,-0.008 0.026,-0.014 0.025,-0.012 0.016,-0.009 0.018,-0.008 0.027,-0.014 0.027,-0.014 0.016,-0.008 0.016,-0.009 0.027,-0.016 0.027,-0.015 0.014,-0.005 0.016,-0.009 0.029,-0.016 0.029,-0.016 0.012,-0.006 0.014,-0.009 0.031,-0.018 0.028,-0.014 0.01,-0.009 0.015,-0.005 0.03,-0.019 0.029,-0.019 0.012,-0.005 0.01,-0.007 0.033,-0.02 0.031,-0.018 0.01,-0.005 0.01,-0.006 0.033,-0.022 0.03,-0.019 0.009,-0.005 0.01,-0.005 0.035,-0.022 0.03,-0.021 0.009,-0.004 0.008,-0.006 0.035,-0.023 0.032,-0.02 0.006,-0.004 0.007,-0.004 0.038,-0.027 0.031,-0.02 0.006,-0.004 0.004,-0.004 0.041,-0.027 0.03,-0.022 0.005,-0.002 0.006,-0.004 0.041,-0.029 0.031,-0.022 0.003,-0.002 0.002,-0.002 0.045,-0.033 0.031,-0.021 0.004,-0.004 0.051,-0.037 0.025,-0.02 h 0.002 l 0.078,-0.059 c 0.382,-0.297 0.793,-0.374 1.115,-0.374 h 0.031 c 0.327,0.004 0.558,0.084 0.558,0.084 1.502,0.954 3.016,1.908 4.624,2.626 1.823,0.813 3.679,1.134 5.541,1.138 h 0.118 C -6.58,1.945 -3.434,1.042 -0.395,0.069 L -0.276,0.031 C -0.194,0.01 -0.108,0 -0.024,0 Z m 86.157,-95.544 c 0.988,-0.139 1.576,-0.2 1.717,-1.018 l 1.758,-7.344 c 0,0 2.217,-7.408 3.713,-12.41 0.862,-2.88 2.775,-5.328 5.358,-6.859 2.462,-1.459 5.284,-3.13 6.066,-3.594 0.124,-0.074 0.284,-0.057 0.391,0.039 0.093,0.084 0.142,0.204 0.136,0.327 -0.007,0.122 -0.066,0.236 -0.164,0.312 -0.879,0.667 -3.055,2.316 -4.929,3.738 -2.06,1.563 -3.593,3.719 -4.39,6.18 -1.332,4.103 -3.269,10.078 -3.269,10.078 -0.516,1.647 -0.918,3.378 -1.163,5.23 l -0.86,5.305 c 0,0 -0.127,1.093 -0.184,1.604 -0.019,0.155 -0.131,0.284 -0.284,0.321 -1.661,0.384 -3.722,0.106 -6.195,-0.865 l -0.923,-0.848 z m 47.193,-28.423 -2.293,1.839 c -3.55,-0.791 -5.757,0.96 -5.138,3.607 l -1.057,1.363 c -0.576,1.291 3.131,1.971 4.848,1.986 0.711,-0.734 4.734,-3.335 3.64,-8.795 M 14.578,14.317 c 6.026,29.609 14.609,51.442 20.293,50.475 6.378,-1.084 6.707,-30.455 0.735,-65.544 -5.97,-35.09 -15.995,-62.698 -22.373,-61.613 -5.482,0.932 -6.494,22.778 -2.875,51.189 l 10.866,-2.003 c 1.016,-0.118 1.929,0.442 2.638,1.222 l 0.857,1.191 c 0.043,0.072 -0.041,-0.11 0.312,0.557 l 0.198,0.396 c 0.248,0.497 0.234,0.502 0.333,0.725 l 0.227,0.556 c 0.052,0.129 0.138,0.327 0.423,1.167 l 0.158,0.492 c 0.184,0.579 0.331,1.143 0.331,1.143 0.145,0.525 0.204,0.795 0.204,0.795 0.36,1.455 0.614,2.951 0.803,4.455 0,0 0.045,0.388 0.08,0.713 0,0 0.039,0.388 0.066,0.713 0,0 0.052,0.725 0.075,1.128 l 0.022,0.558 c 0.021,0.638 0.027,1.275 0.004,1.915 -0.022,0.638 -0.038,1.144 -0.171,2.19 0,0 -0.069,0.472 -0.072,0.487 -0.036,0.225 0.08,-0.233 -0.193,0.989 l -0.142,0.546 c -0.043,0.157 0.058,0.016 -0.361,1.048 l -0.195,0.427 c -0.097,0.204 0.033,-0.047 -0.192,0.362 l -0.335,0.517 c -0.182,0.251 -0.071,0.1 -0.184,0.237 0,0 -0.198,0.227 -0.327,0.351 -0.507,0.487 -1.132,0.81 -1.792,0.926 z m -39.356,4.604 0.045,-0.067 0.016,-0.025 c 0.027,-0.038 0.057,-0.081 0.09,-0.131 0,0 0.064,-0.088 0.162,-0.218 0.1,-0.137 0.238,-0.321 0.386,-0.509 0,0 0.206,-0.245 0.411,-0.48 0.048,-0.055 0.098,-0.111 0.143,-0.162 0,0 0.012,-0.014 0.034,-0.037 0.019,-0.018 0.041,-0.042 0.07,-0.071 l 0.004,-0.006 0.014,-0.014 c 0.092,-0.097 0.221,-0.227 0.335,-0.34 l 0.284,-0.263 c 0.152,-0.14 0.258,-0.229 0.329,-0.288 0.047,-0.039 0.078,-0.064 0.094,-0.074 0.008,-0.006 0.013,-0.01 0.013,-0.01 0.079,-0.102 0.145,-0.188 0.198,-0.26 l 0.026,-0.034 0.029,-0.039 c 0.029,-0.039 0.053,-0.074 0.075,-0.104 0.009,-0.013 0.017,-0.025 0.025,-0.038 0.008,-0.012 0.016,-0.022 0.023,-0.034 0.01,-0.012 0.016,-0.027 0.024,-0.037 0.109,-0.192 -0.031,-0.149 0.276,-0.936 0,0 0.059,-0.176 0.139,-0.405 0.045,-0.132 0.096,-0.281 0.145,-0.424 0.023,-0.07 0.045,-0.135 0.066,-0.199 0,0 0.016,-0.055 0.055,-0.177 l 0.012,-0.041 c 0.004,-0.009 0.006,-0.019 0.008,-0.027 l 0.004,-0.008 0.004,-0.014 v -0.003 -0.002 l 0.005,-0.008 0.004,-0.012 v -0.002 l 0.001,-0.002 0.002,-0.008 0.005,-0.013 0.002,-0.002 v -10e-4 l 0.004,-0.011 0.004,-0.01 v -0.002 l 0.002,-0.004 0.002,-0.008 0.004,-0.008 0.002,-0.005 0.002,-0.004 0.002,-0.006 0.004,-0.01 0.002,-0.004 0.003,-0.004 0.002,-0.007 0.003,-0.007 0.002,-0.005 0.003,-0.004 0.004,-0.008 0.002,-0.006 0.004,-0.006 0.002,-0.004 0.002,-0.006 0.004,-0.006 0.002,-0.007 0.002,-0.006 0.004,-0.004 0.002,-0.006 0.005,-0.006 0.001,-0.006 0.004,-0.004 0.002,-0.007 0.005,-0.006 0.002,-0.006 0.004,-0.004 0.002,-0.004 0.004,-0.008 0.004,-0.006 0.002,-0.004 0.002,-0.004 0.004,-0.008 0.004,-0.007 0.002,-0.004 0.002,-0.002 0.006,-0.008 0.004,-0.008 0.003,-0.002 0.002,-0.002 0.004,-0.01 0.006,-0.007 v -0.002 l 0.002,-0.002 0.006,-0.01 0.006,-0.008 0.002,-0.002 0.006,-0.01 0.006,-0.008 0.003,-0.003 0.007,-0.01 0.005,-0.008 h 0.002 l 0.01,-0.014 0.004,-0.006 c 0.004,-0.007 0.01,-0.012 0.014,-0.019 h 0.003 l 0.003,-0.008 0.011,-0.01 v -0.002 l 0.008,-0.006 0.006,-0.01 h 0.002 l 0.002,-0.002 0.006,-0.009 0.006,-0.008 h 0.002 l 0.002,-0.002 0.007,-0.006 0.006,-0.008 0.002,-0.002 0.002,-0.002 0.006,-0.006 0.006,-0.007 0.002,-0.002 0.004,-0.004 0.006,-0.006 0.004,-0.006 0.005,-0.002 0.002,-0.002 0.005,-0.006 0.007,-0.004 0.002,-0.004 0.004,-0.002 0.006,-0.007 0.004,-0.004 0.004,-0.004 0.004,-0.004 0.007,-0.004 0.004,-0.004 0.003,-0.004 0.005,-0.002 0.004,-0.004 0.006,-0.004 0.004,-0.004 0.004,-0.005 0.006,-0.004 0.002,-0.004 0.007,-0.002 0.005,-0.006 0.005,-0.002 0.002,-0.004 0.006,-0.004 0.006,-0.004 0.004,-0.002 0.004,-0.002 0.004,-0.004 0.008,-0.007 0.002,-10e-4 0.004,-0.002 0.007,-0.005 0.006,-0.006 0.004,-0.002 h 0.002 l 0.006,-0.006 0.008,-0.004 0.004,-0.002 v -0.002 l 0.008,-0.004 0.009,-0.007 h 0.001 l 0.003,-10e-4 0.008,-0.004 0.008,-0.007 h 0.002 l 0.002,-0.002 0.006,-0.004 0.012,-0.006 0.007,-0.004 c 0.016,-0.008 0.035,-0.018 0.051,-0.027 l 0.004,-0.002 h 0.002 l 0.012,-0.006 0.006,-0.002 0.002,-0.002 h 0.002 l 0.011,-0.004 0.008,-0.004 0.002,-0.002 0.01,-0.004 0.008,-0.002 0.002,-0.002 h 0.002 l 0.011,-0.004 0.006,-0.002 0.001,-0.002 h 0.005 l 0.01,-0.004 0.006,-0.003 0.002,-0.002 h 0.004 l 0.008,-0.003 0.006,-0.002 h 0.004 l 0.005,-0.003 0.008,-0.002 0.006,-0.002 0.004,-0.002 h 0.006 l 0.007,-0.002 0.005,-0.002 0.005,-0.002 0.006,-0.002 h 0.006 l 0.006,-0.002 0.004,-0.002 h 0.006 l 0.006,-0.002 0.006,-0.002 h 0.005 l 0.008,-0.002 0.004,-0.002 h 0.004 l 0.006,-0.002 0.008,-0.002 h 0.006 0.004 l 0.007,-0.003 0.008,-0.002 h 0.004 0.004 l 0.006,-0.002 h 0.008 l 0.004,-10e-4 h 0.004 0.008 l 0.009,-0.002 h 0.004 0.002 l 0.008,-0.003 h 0.01 0.002 0.002 l 0.01,-0.002 h 0.011 0.002 0.002 l 0.01,-0.002 h 0.011 10e-4 0.013 0.01 0.024 0.025 0.024 c 0.008,0.002 0.017,0.002 0.025,0.002 0.061,0.007 0.123,0.017 0.18,0.035 0.008,0.002 0.016,0.004 0.024,0.006 0.045,0.014 0.09,0.033 0.131,0.051 l 0.024,0.013 c 0.009,0.004 0.017,0.008 0.025,0.012 l 0.016,0.008 c 0.086,0.045 0.162,0.098 0.219,0.141 0.021,0.016 0.039,0.033 0.055,0.047 0.043,0.035 0.066,0.059 0.066,0.059 0.04,0.043 0.079,0.086 0.118,0.129 l 0.086,0.094 0.117,0.125 0.086,0.092 0.089,0.096 c 0.059,0.063 0.117,0.124 0.172,0.182 0.039,0.041 0.075,0.081 0.112,0.118 0.213,0.225 0.358,0.378 0.358,0.378 l 0.018,0.019 c 0.065,0.067 0.115,0.12 0.153,0.159 0.08,0.082 0.107,0.108 0.117,0.119 l 0.004,0.003 0.02,0.021 c 0.268,0.268 0.532,0.539 0.812,0.791 0.022,0.018 0.043,0.039 0.063,0.057 l 0.045,0.039 c 0.023,0.018 0.045,0.039 0.068,0.057 l 0.038,0.033 c 0.019,0.014 0.037,0.028 0.056,0.042 l 0.063,0.054 h 0.002 c 0.004,0.002 0.008,0.004 0.014,0.004 h 0.005 l 0.005,-0.002 0.007,-0.002 0.004,-0.002 h 0.002 l 0.004,-0.002 0.002,-0.002 0.004,-0.002 0.002,-0.003 0.004,-0.002 0.002,-0.001 0.004,-0.004 h 0.003 l 0.005,-0.007 c 0.011,-0.01 0.023,-0.022 0.035,-0.036 l 0.01,-0.013 0.005,-0.004 0.002,-0.002 0.012,-0.016 0.002,-0.004 0.012,-0.017 0.004,-0.006 0.01,-0.014 0.005,-0.006 0.01,-0.016 0.006,-0.007 0.01,-0.016 0.004,-0.006 0.011,-0.016 0.003,-0.009 0.011,-0.016 0.004,-0.006 0.01,-0.019 0.004,-0.006 0.012,-0.02 0.002,-0.002 0.002,-0.006 0.017,-0.029 0.016,-0.027 0.01,-0.016 0.015,-0.027 0.008,-0.016 0.034,-0.059 v -0.002 l 0.002,-0.002 0.007,-0.012 0.004,-0.007 v -0.002 l 0.002,-0.004 0.002,-0.002 0.004,-0.006 c 0.047,-0.063 0.078,-0.108 0.098,-0.139 0.01,-0.016 0.018,-0.028 0.023,-0.037 0.004,-0.005 0.005,-0.01 0.01,-0.014 0.018,-0.033 0.002,-0.016 0.045,-0.057 0.028,-0.029 0.088,-0.088 0.21,-0.215 l 0.249,-0.245 c 0,-0.002 0.003,-0.002 0.003,-0.002 l 0.002,-0.002 c 0.006,-0.004 0.012,-0.006 0.016,-0.006 h 0.004 l 0.016,0.004 h 0.005 l 0.004,-0.002 h 0.002 0.001 l 0.003,-0.002 0.004,-0.002 0.004,-0.004 0.004,-0.004 0.004,-0.004 0.004,-0.007 0.006,-0.006 v -10e-4 l 0.004,-0.007 v -0.002 l 0.007,-0.008 0.003,-0.01 0.009,-0.014 0.002,-0.004 0.008,-0.017 0.004,-0.006 0.008,-0.02 h 0.002 v -0.003 l 0.01,-0.024 0.004,-0.008 0.011,-0.025 0.002,-0.004 0.012,-0.034 0.004,-0.009 0.012,-0.031 0.005,-0.008 0.016,-0.042 0.004,-0.011 0.014,-0.039 0.004,-0.012 0.019,-0.049 0.028,-0.08 0.008,-0.022 0.025,-0.07 0.01,-0.028 0.035,-0.1 0.004,-0.008 0.004,-0.007 c 0.004,-0.012 0.014,-0.038 0.029,-0.086 0.022,-0.067 0.055,-0.183 0.108,-0.376 0.025,-0.089 0.049,-0.181 0.074,-0.273 0.079,-0.299 0.159,-0.603 0.259,-0.879 l 0.002,-0.006 0.014,-0.041 c 0.009,-0.02 0.015,-0.039 0.023,-0.059 0.051,-0.133 0.108,-0.26 0.172,-0.374 0.02,-0.037 0.043,-0.072 0.063,-0.106 0.02,-0.031 0.043,-0.062 0.063,-0.091 0.07,-0.093 0.148,-0.173 0.233,-0.235 0.029,-0.022 0.06,-0.04 0.09,-0.057 0.019,-0.01 0.037,-0.02 0.058,-0.028 0.014,-0.008 0.028,-0.015 0.045,-0.019 0.024,-0.01 0.048,-0.018 0.073,-0.024 0.074,-0.02 0.153,-0.031 0.239,-0.031 l 0.043,0.002 0.039,0.002 0.036,0.007 0.05,0.007 0.053,0.013 0.052,0.014 0.054,0.018 0.062,0.025 0.062,0.029 0.033,0.016 0.053,0.028 0.048,0.029 0.042,0.029 0.039,0.026 0.045,0.033 0.031,0.023 0.014,0.014 0.133,0.12 0.09,0.082 c 0.147,0.133 0.293,0.264 0.439,0.394 0.06,0.054 0.119,0.107 0.178,0.16 0.145,0.129 0.29,0.255 0.437,0.384 0.121,0.104 0.241,0.208 0.363,0.313 0.056,0.049 0.116,0.098 0.172,0.147 0.111,0.094 0.224,0.186 0.336,0.28 0,0 0.141,0.116 0.315,0.251 0.049,0.037 0.099,0.078 0.149,0.117 0.053,0.038 0.104,0.077 0.154,0.114 0.04,0.029 0.079,0.058 0.114,0.082 0.071,0.051 0.131,0.094 0.183,0.129 0.225,0.153 0.281,0.167 0.372,0.21 0.019,0.008 0.041,0.019 0.066,0.033 0.022,0.012 0.051,0.027 0.084,0.047 0.032,0.021 0.071,0.045 0.118,0.076 l 0.006,-0.017 v -0.004 -0.004 l 0.002,-0.002 V 14.17 14.168 l 0.003,-0.004 0.002,-0.004 0.002,-0.007 0.002,-0.006 c 0.004,-0.014 0.011,-0.034 0.026,-0.069 v -0.004 l 0.071,-0.188 0.142,-0.321 c 0.036,-0.084 0.065,-0.145 0.086,-0.19 0.094,-0.202 0.038,-0.062 0.099,-0.17 l 0.006,-0.008 c 0.002,-0.004 0.011,-0.018 0.025,-0.043 0.068,-0.106 0.243,-0.382 0.259,-0.404 0.011,-0.015 0.021,-0.027 0.027,-0.037 0.027,-0.039 0.033,-0.049 0.037,-0.055 0.004,-0.009 0.004,-0.011 0.022,-0.033 0.025,-0.031 0.08,-0.098 0.213,-0.26 l 0.376,-0.394 c 0.027,-0.027 0.049,-0.045 0.066,-0.061 0.028,-0.025 0.047,-0.039 0.06,-0.049 0.017,-0.015 0.03,-0.025 0.048,-0.045 0.01,-0.01 0.023,-0.023 0.036,-0.039 0.013,-0.016 0.028,-0.033 0.045,-0.055 0.193,-0.223 0.311,-0.38 0.401,-0.511 0.039,-0.057 0.072,-0.11 0.104,-0.16 0.064,-0.104 0.119,-0.2 0.196,-0.319 0,0 0.029,-0.04 0.137,-0.216 0.043,-0.067 0.099,-0.157 0.17,-0.274 0.013,-0.02 0.026,-0.043 0.039,-0.063 l 0.012,-0.021 0.027,-0.04 v -0.002 h 0.002 l 0.014,-0.025 0.022,-0.037 0.002,-0.002 0.015,-0.024 0.022,-0.033 V 9.993 L -6.55,9.991 -6.535,9.968 -6.515,9.936 -6.513,9.934 -6.511,9.932 -6.496,9.907 -6.477,9.878 -6.474,9.875 V 9.873 L -6.466,9.862 -6.458,9.85 -6.456,9.848 -6.454,9.844 -6.447,9.833 -6.439,9.823 -6.437,9.819 -6.436,9.817 -6.427,9.807 -6.421,9.795 -6.417,9.792 -6.415,9.789 -6.409,9.778 -6.4,9.768 -6.398,9.764 -6.396,9.762 -6.391,9.752 -6.382,9.742 -6.38,9.737 -6.378,9.733 -6.37,9.725 -6.363,9.715 -6.361,9.711 -6.357,9.707 -6.352,9.699 -6.346,9.688 -6.341,9.684 -6.339,9.68 -6.333,9.672 -6.325,9.664 -6.323,9.66 -6.318,9.656 -6.312,9.647 -6.307,9.637 -6.303,9.633 -6.301,9.629 -6.294,9.623 -6.288,9.613 -6.284,9.609 -6.28,9.604 -6.273,9.596 -6.268,9.588 -6.266,9.584 -6.262,9.58 -6.256,9.574 -6.249,9.566 -6.245,9.562 -6.241,9.556 -6.237,9.549 -6.23,9.541 -6.227,9.537 -6.223,9.533 -6.217,9.527 -6.211,9.519 -6.206,9.515 -6.202,9.511 -6.198,9.502 -6.192,9.496 -6.188,9.492 -6.184,9.486 -6.178,9.482 -6.172,9.474 -6.168,9.47 -6.163,9.466 -6.157,9.459 -6.153,9.453 -6.147,9.447 -6.143,9.443 -6.139,9.437 -6.133,9.431 -6.129,9.427 -6.125,9.423 -6.118,9.417 -6.112,9.411 -6.108,9.406 -6.104,9.402 -6.098,9.396 -6.094,9.392 -6.088,9.386 -6.084,9.382 -6.08,9.375 -6.073,9.372 -6.067,9.368 -6.063,9.361 -6.06,9.357 -6.053,9.354 -6.049,9.347 -6.043,9.343 -6.039,9.339 -6.032,9.335 -6.028,9.329 -6.022,9.325 -6.019,9.32 -6.013,9.316 -6.008,9.311 -6.002,9.306 -5.998,9.302 -5.992,9.298 -5.985,9.294 -5.981,9.288 -5.978,9.286 -5.972,9.282 -5.965,9.275 -5.959,9.271 -5.955,9.27 -5.951,9.266 -5.944,9.259 -5.938,9.255 -5.935,9.253 -5.931,9.249 -5.925,9.245 -5.918,9.239 -5.914,9.237 -5.91,9.235 -5.902,9.229 -5.896,9.225 -5.892,9.223 -5.888,9.22 -5.882,9.214 -5.873,9.21 -5.871,9.208 -5.867,9.206 -5.859,9.2 -5.853,9.196 -5.849,9.194 -5.845,9.192 -5.839,9.188 -5.83,9.184 -5.826,9.182 -5.824,9.18 -5.816,9.173 -5.808,9.169 h 0.002 l 0.004,-0.002 0.008,-0.006 0.009,-0.004 h 0.002 l 0.004,-0.002 0.008,-0.004 0.008,-0.004 0.002,-0.002 h 0.004 L -5.749,9.139 -5.74,9.137 -5.738,9.135 -5.734,9.132 -5.727,9.128 -5.718,9.126 -5.714,9.125 h 0.002 L -5.701,9.12 -5.693,9.116 h 0.002 l 0.002,-0.002 0.01,-0.004 0.008,-0.002 0.004,-0.002 h 0.002 C -5.656,9.102 -5.65,9.1 -5.645,9.098 h 0.002 0.002 C -5.634,9.096 -5.626,9.094 -5.62,9.092 h 0.002 L -5.616,9.09 c 0.007,-0.003 0.012,-0.005 0.02,-0.007 h 0.007 l 0.004,-10e-4 h 0.002 L -5.577,9.08 h 0.004 0.002 V 9.077 h 0.007 l 0.003,-0.002 h 0.002 0.006 l 0.004,-0.002 h 0.003 L -5.54,9.071 h 0.004 0.002 l 0.006,-0.002 h 0.005 0.002 0.001 l 0.004,-0.002 h 0.006 0.002 l 0.005,-0.002 h 0.006 0.002 0.006 l 0.004,-0.002 h 0.002 0.006 l 0.004,-0.002 h 0.002 0.006 0.007 0.008 l 0.004,-0.002 h 0.002 0.006 0.006 0.008 L -5.42,9.057 h 0.002 0.007 0.006 0.008 0.004 0.01 0.004 0.041 l 0.041,0.002 0.039,0.006 0.04,0.006 0.058,0.012 0.057,0.017 0.055,0.018 0.045,0.019 0.031,0.012 c 0.066,0.031 0.126,0.065 0.18,0.098 l 0.043,0.031 0.049,0.035 0.045,0.032 0.037,0.03 0.045,0.042 0.034,0.032 c 0,0 0.145,0.174 0.707,0.816 l 0.66,0.717 c 0.11,0.114 0.211,0.212 0.305,0.3 l 0.03,0.031 0.027,0.022 c 0.08,0.074 0.154,0.14 0.225,0.203 0.12,0.106 0.232,0.206 0.347,0.318 0.043,0.043 0.086,0.088 0.131,0.136 l 0.025,0.024 0.026,0.031 c 0.014,0.014 0.029,0.03 0.043,0.047 l 0.18,0.214 c 0.039,0.049 0.071,0.094 0.098,0.135 0.018,0.029 0.035,0.053 0.048,0.08 0.007,0.008 0.011,0.016 0.015,0.024 0.039,0.068 0.064,0.125 0.08,0.17 0.029,0.075 0.036,0.115 0.055,0.112 0.016,-0.002 0.043,-0.035 0.1,-0.102 0.017,-0.02 0.035,-0.043 0.057,-0.069 l 0.552,-0.546 c 0.027,-0.023 0.05,-0.043 0.069,-0.061 0.026,-0.019 0.048,-0.037 0.066,-0.053 l 0.035,-0.029 0.033,-0.027 c 0.016,-0.012 0.03,-0.022 0.042,-0.032 0.041,-0.031 0.072,-0.049 0.095,-0.064 0.051,-0.033 0.069,-0.04 0.112,-0.1 l 0.008,-0.01 0.011,-0.014 c 0.007,-0.013 0.017,-0.027 0.03,-0.045 0.037,-0.055 0.09,-0.133 0.168,-0.25 L 0.084,11.023 0.104,10.99 C 0.157,10.896 0.21,10.804 0.258,10.714 0.386,10.479 0.49,10.271 0.552,10.148 L 0.568,10.111 0.599,10.05 C 0.604,10.036 0.608,10.028 0.608,10.028 0.789,9.67 0.793,9.649 0.866,9.492 0.879,9.463 0.893,9.437 0.907,9.411 0.917,9.394 0.926,9.378 0.936,9.361 0.958,9.325 0.982,9.29 1.008,9.259 1.111,9.123 1.234,9.03 1.363,8.969 1.687,8.816 2.056,8.856 2.307,8.918 2.329,8.924 2.352,8.93 2.374,8.934 l 0.022,0.008 c 0.125,0.035 0.206,0.072 0.206,0.072 0.506,0.421 1.203,0.989 1.203,0.989 0.104,0.084 0.205,0.164 0.304,0.241 l 0.068,0.053 0.059,0.045 0.064,0.05 0.092,0.069 0.069,0.053 0.073,0.055 0.119,0.09 c 0.523,0.39 1.073,0.795 1.809,1.423 l 0.112,0.098 0.057,0.049 0.057,0.048 c 0.019,0.017 0.04,0.036 0.06,0.052 0,0 0.026,0.026 0.071,0.069 0.1,0.096 0.288,0.276 0.431,0.421 0,0 0.054,0.057 0.125,0.135 0.037,0.041 0.08,0.09 0.123,0.137 0.032,0.036 0.065,0.072 0.096,0.106 l 0.084,0.102 0.092,0.113 0.056,0.069 0.033,0.041 15.831,-2.897 c 0.64,-0.115 1.137,-0.65 1.456,-1.284 0.276,-0.548 0.407,-0.995 0.545,-1.541 0,0 0.165,-0.766 0.242,-1.31 0.034,-0.245 0.101,-0.942 0.101,-0.942 0.05,-0.687 0.072,-1.381 0.072,-2.074 0,0 -0.014,-0.75 -0.039,-1.294 l -0.08,-1.185 c -0.157,-1.639 -0.4,-3.298 -0.763,-4.904 -0.073,-0.315 -0.088,-0.415 -0.275,-1.12 0,0 -0.028,-0.104 -0.101,-0.366 -0.066,-0.237 -0.135,-0.472 -0.205,-0.709 0,0 -0.031,-0.098 -0.109,-0.339 0,0 -0.122,-0.372 -0.224,-0.666 l -0.195,-0.522 c -0.054,-0.14 0.041,0.084 -0.24,-0.594 0,0 -0.08,-0.182 -0.229,-0.507 0,0 -0.352,-0.713 -0.646,-1.173 -0.161,-0.256 -0.742,-1.332 -1.524,-1.259 l -10.69,1.97 -0.164,0.031 0.004,0.026 -1.332,0.225 c 0.041,0.086 0.174,0.356 0.278,0.572 0,0 0.159,0.338 0.397,0.885 0,0 0.126,0.301 0.224,0.538 l 0.18,0.459 c 0.194,0.493 0.374,1.032 0.374,1.032 0.094,0.278 0.09,0.241 0.307,0.967 l 0.243,0.883 c 0.036,0.143 -0.017,-0.094 0.146,0.609 0,0 0.021,0.079 0.07,0.308 l 0.143,0.718 c 0.096,0.506 0.17,1.046 0.17,1.046 0.081,0.568 0.131,1.142 0.176,1.719 0,0 0.024,0.468 0.024,0.821 l -0.061,1.014 c -0.051,0.598 -0.18,1.514 -0.18,1.514 -0.299,2.048 -0.682,4.079 -1.12,6.112 -0.135,0.623 -0.578,0.977 -1.144,1.054 -0.848,0.005 -0.945,-0.01 -1.338,-1.035 0,0 -0.116,-0.281 -0.201,-0.479 C 7.953,9.762 7.743,9.282 7.508,8.83 7.187,8.213 6.688,7.146 5.871,6.592 5.832,6.566 5.795,6.543 5.755,6.521 5.338,6.309 4.927,6.083 4.521,5.849 L 4.403,5.781 4.386,5.771 4.285,5.711 4.265,5.699 4.15,5.632 4.029,5.559 4.016,5.552 3.915,5.491 3.887,5.473 3.801,5.419 3.771,5.401 3.679,5.344 3.655,5.33 3.543,5.258 3.525,5.248 3.431,5.188 3.396,5.166 3.318,5.117 3.282,5.092 3.2,5.04 3.169,5.021 3.059,4.947 3.045,4.939 2.951,4.876 2.914,4.852 2.838,4.802 2.8,4.776 2.724,4.725 2.691,4.702 2.581,4.628 2.076,4.273 C 1.179,3.638 0.122,2.838 -0.127,2.648 L -0.182,2.607 c -3.214,1.002 -6.497,1.848 -9.826,1.846 -3.612,-0.002 -6.921,-1.445 -9.917,-3.282 -0.049,-0.029 -0.098,-0.059 -0.147,-0.088 -0.196,-0.121 -0.38,-0.227 -0.47,-0.28 l -0.059,-0.035 c -0.693,0.493 -1.437,0.92 -2.219,1.249 -1.376,0.583 -2.831,0.846 -4.29,0.854 h -0.071 c -1.531,0 -3.066,-0.28 -4.519,-0.768 l -0.106,-0.037 -0.035,-0.01 -0.073,-0.027 -0.041,-0.014 -0.067,-0.025 -0.041,-0.014 -0.072,-0.024 -0.037,-0.015 -0.081,-0.028 -0.025,-0.011 -0.11,-0.041 -0.007,-0.002 -0.102,-0.039 -0.024,-0.007 -0.084,-0.033 c -1.766,-0.687 -3.443,-1.609 -5.019,-2.702 l -5.489,0.942 c 1.49,7.353 2.454,14.567 2.982,21.445 z M 5.282,13.949 5.278,13.945 5.272,13.939 5.256,13.925 5.233,13.904 5.229,13.9 5.217,13.892 5.205,13.882 5.192,13.872 5.181,13.859 5.174,13.855 5.147,13.833 5.131,13.82 5.125,13.814 5.121,13.81 5.108,13.802 5.052,13.755 C 4.87,13.606 4.727,13.496 4.614,13.408 4.437,13.271 4.326,13.193 4.232,13.127 4.199,13.105 4.171,13.085 4.14,13.063 4.104,13.036 4.066,13.009 4.025,12.977 L 3.991,12.95 C 3.876,12.86 3.519,12.578 3.208,12.329 L 3.146,12.282 c 0,0 -0.026,-0.021 -0.071,-0.057 L 3.065,12.216 3.028,12.186 2.916,12.096 2.869,12.059 2.854,12.047 2.834,12.03 2.806,12.006 2.757,11.967 2.718,11.937 2.703,11.924 2.683,11.908 2.611,11.851 2.572,11.818 2.564,11.812 C 2.518,11.773 2.469,11.734 2.422,11.695 L 2.387,11.667 2.274,11.575 c 0,0 -0.007,0.014 -0.022,0.04 -0.03,0.06 -0.096,0.18 -0.192,0.354 l -0.043,0.078 c 0,0 0.002,0 -0.147,0.251 -0.17,0.288 -0.319,0.503 -0.319,0.503 l -0.004,0.004 c -0.035,0.049 -0.043,0.067 -0.045,0.079 -0.004,0.007 -0.004,0.013 -0.008,0.019 l -0.003,0.006 c -0.01,0.016 -0.034,0.047 -0.107,0.131 -0.052,0.057 -0.125,0.141 -0.234,0.259 0,0 0.002,0.002 -0.127,0.123 L 1.02,13.424 C 1.012,13.432 0.984,13.453 0.946,13.485 0.807,13.598 0.507,13.847 0.249,14.123 L 0.243,14.129 0.229,14.147 C 0.187,14.19 0.151,14.233 0.114,14.276 0.1,14.292 0.088,14.309 0.075,14.323 l -0.013,0.018 -0.045,0.055 -0.013,0.017 -0.023,0.031 -0.005,0.008 -0.004,0.004 c -0.011,0.016 -0.023,0.031 -0.035,0.045 v 0.002 l -0.006,0.008 -0.017,0.023 -0.004,0.006 -0.006,0.006 -0.005,0.008 -0.005,0.006 -0.004,0.006 -0.004,0.006 -0.015,0.021 -0.006,0.008 -0.002,0.002 c -0.009,0.014 -0.018,0.027 -0.027,0.039 l -0.002,0.004 -0.006,0.01 -0.01,0.014 -0.008,0.011 -0.006,0.01 -0.004,0.006 -0.023,0.035 -0.02,0.033 -0.015,0.022 -0.006,0.01 -0.014,0.023 -0.019,0.031 -0.004,0.005 -0.008,0.017 c -0.014,0.023 -0.024,0.045 -0.037,0.065 l -0.004,0.006 c -0.009,0.021 -0.02,0.041 -0.03,0.062 l -0.002,0.004 -0.02,0.041 v 0.002 l -0.021,0.041 -0.02,0.042 -0.019,0.039 -0.02,0.045 c -0.01,0.025 -0.021,0.047 -0.033,0.072 l -0.005,0.01 -0.001,0.006 -0.004,0.006 -0.004,0.011 -0.006,0.014 -0.007,0.012 -0.006,0.012 -0.002,0.004 -0.004,0.008 -0.012,0.029 -0.004,0.009 h -0.002 c -0.006,0.016 -0.015,0.03 -0.023,0.046 -0.004,0.013 -0.01,0.025 -0.016,0.035 l -0.002,0.004 -0.002,0.004 -0.008,0.015 -0.011,0.02 -0.002,0.004 v 0.002 c -0.006,0.013 -0.014,0.027 -0.02,0.039 l -0.002,0.004 -0.004,0.006 c -0.006,0.012 -0.015,0.027 -0.023,0.041 -0.018,0.037 -0.039,0.07 -0.061,0.102 -0.013,0.015 -0.023,0.029 -0.034,0.043 -0.013,0.016 -0.026,0.031 -0.039,0.047 -0.015,0.014 -0.032,0.031 -0.045,0.045 -0.023,0.023 -0.047,0.043 -0.073,0.062 -0.007,0.006 -0.015,0.012 -0.022,0.018 -0.059,0.043 -0.122,0.079 -0.189,0.108 -0.047,0.023 -0.094,0.041 -0.146,0.055 -0.041,0.012 -0.084,0.021 -0.126,0.029 l -0.013,0.002 -0.01,0.002 c -0.102,0.017 -0.206,0.019 -0.311,0.01 -0.04,-0.004 -0.083,-0.01 -0.124,-0.018 -0.007,-0.002 -0.015,-0.002 -0.02,-0.004 -0.023,-0.005 -0.045,-0.01 -0.068,-0.017 L -1.982,16.113 C -2.103,16.079 -2.216,16.025 -2.315,15.956 -2.332,15.946 -2.346,15.934 -2.362,15.921 -2.373,15.913 -2.385,15.903 -2.397,15.893 -2.403,15.886 -2.411,15.88 -2.42,15.874 -2.444,15.852 -2.467,15.827 -2.489,15.803 -2.497,15.792 -2.508,15.78 -2.516,15.77 -2.542,15.735 -2.569,15.701 -2.592,15.662 L -2.598,15.649 -2.604,15.639 -2.605,15.635 -2.609,15.629 -2.611,15.627 -2.62,15.613 -2.622,15.608 -2.624,15.603 -2.626,15.598 -2.63,15.592 -2.632,15.586 -2.635,15.58 H -2.637 L -2.639,15.572 -2.643,15.565 -2.646,15.556 -2.648,15.547 -2.654,15.533 -2.656,15.527 V 15.525 L -2.663,15.506 -2.667,15.5 V 15.498 L -2.675,15.474 -2.677,15.468 -2.689,15.431 C -2.704,15.39 -2.72,15.337 -2.74,15.271 l -0.127,-0.355 c -0.051,-0.135 -0.082,-0.223 -0.114,-0.301 -0.047,-0.11 -0.094,-0.202 -0.197,-0.386 l -0.014,-0.026 c 0,0 -0.031,-0.059 -0.098,-0.168 -0.045,-0.074 -0.108,-0.172 -0.192,-0.286 0,0 -0.287,-0.294 -0.468,-0.476 -0.033,-0.033 -0.06,-0.062 -0.084,-0.084 -0.025,-0.024 -0.045,-0.043 -0.055,-0.053 -0.005,-0.002 -0.009,-0.006 -0.015,-0.012 -0.035,-0.033 -0.121,-0.117 -0.22,-0.215 -0.215,-0.21 -0.497,-0.491 -0.515,-0.511 h -0.002 c -0.043,-0.047 -0.08,-0.085 -0.11,-0.118 L -4.966,12.265 -4.977,12.253 C -5.035,12.19 -5.074,12.149 -5.104,12.114 l -0.007,-0.006 -0.006,-0.006 c -0.015,-0.017 -0.027,-0.031 -0.039,-0.045 l -0.066,-0.072 -0.29,0.438 c -0.133,0.192 -0.269,0.376 -0.396,0.535 -0.03,0.039 -0.062,0.078 -0.09,0.112 -0.032,0.039 -0.064,0.076 -0.092,0.111 -0.053,0.059 -0.1,0.114 -0.143,0.161 0,0 -0.023,0.019 -0.055,0.047 -0.056,0.049 -0.144,0.129 -0.229,0.217 -0.049,0.047 -0.096,0.096 -0.135,0.145 l -0.031,0.035 c -0.086,0.102 -0.136,0.165 -0.171,0.212 l -0.01,0.015 -0.013,0.016 c -0.038,0.057 -0.055,0.088 -0.092,0.147 l -0.002,0.006 c -0.202,0.325 -0.237,0.431 -0.28,0.562 -0.006,0.016 -0.012,0.035 -0.018,0.055 -0.022,0.062 -0.041,0.113 -0.055,0.159 -0.035,0.109 -0.053,0.181 -0.068,0.242 -0.009,0.049 -0.016,0.094 -0.024,0.145 l -0.004,0.027 -0.017,0.087 v 0.004 l -0.003,0.027 -0.013,0.068 v 0.005 l -0.004,0.023 -0.004,0.031 -0.002,0.01 -0.002,0.006 -0.002,0.01 -0.003,0.019 -0.002,0.022 -0.002,0.006 v 0.008 l -0.002,0.013 -0.002,0.012 -0.001,0.014 v 0.002 l -0.002,0.012 v 0.013 l -0.002,0.014 v 0.006 l -0.002,0.01 v 0.007 l -0.002,0.014 v 0.006 0.004 0.002 0.01 0.004 0.003 0.008 0.004 0.026 l 0.002,0.023 0.009,0.055 c 0.004,0.024 0.011,0.053 0.015,0.096 l 0.004,0.043 0.004,0.051 c 0.002,0.043 0.002,0.086 0,0.127 -0.002,0.036 -0.006,0.076 -0.012,0.11 -0.002,0.018 -0.007,0.035 -0.011,0.051 -0.003,0.023 -0.009,0.043 -0.016,0.063 l -0.004,0.017 -0.004,0.008 c -0.002,0.013 -0.006,0.022 -0.01,0.035 -0.07,0.19 -0.192,0.354 -0.345,0.48 -0.015,0.012 -0.029,0.024 -0.043,0.035 -0.06,0.045 -0.123,0.084 -0.191,0.118 -0.01,0.007 -0.02,0.011 -0.032,0.017 -0.108,0.051 -0.223,0.085 -0.339,0.102 -0.022,0.004 -0.043,0.006 -0.065,0.008 -0.066,0.006 -0.129,0.006 -0.195,0 L -8.738,17.319 -8.744,17.317 H -8.755 L -8.769,17.315 C -8.777,17.313 -8.785,17.311 -8.794,17.311 L -8.808,17.307 H -8.81 l -0.016,-0.002 -0.006,-0.002 -0.013,-0.002 -0.006,-0.003 -0.01,-0.002 -0.018,-0.005 C -8.892,17.289 -8.906,17.284 -8.92,17.278 -8.931,17.276 -8.94,17.272 -8.951,17.268 -9.012,17.246 -9.071,17.217 -9.129,17.18 -9.235,17.113 -9.313,17.033 -9.521,16.837 L -9.554,16.81 -9.563,16.8 -9.589,16.779 -9.606,16.765 -9.64,16.739 -9.66,16.72 -9.701,16.686 -9.724,16.669 -9.778,16.624 -9.797,16.608 -9.817,16.591 -9.87,16.548 -9.877,16.544 -9.893,16.53 l -0.049,-0.039 -0.025,-0.02 -0.073,-0.057 -0.004,-0.002 -0.02,-0.016 -0.045,-0.036 -0.009,-0.007 -0.004,-0.003 -0.008,-0.006 -0.022,-0.018 -0.036,-0.025 -0.009,-0.008 -0.009,-0.006 -0.014,-0.01 -0.018,-0.014 -0.029,-0.021 -0.004,-0.004 -0.02,-0.014 -0.019,-0.015 -0.008,-0.006 -0.021,-0.014 -0.01,-0.008 -0.02,-0.014 -0.019,-0.013 -0.026,-0.02 -0.015,-0.009 -0.026,-0.02 -0.014,-0.01 -0.025,-0.016 -0.025,-0.017 -0.009,-0.006 -0.002,-0.002 -0.039,-0.027 c 0,0 -0.201,-0.11 -0.413,-0.233 -0.029,-0.018 -0.059,-0.034 -0.088,-0.053 l -0.045,-0.026 -0.008,-0.004 c -0.033,-0.021 -0.065,-0.041 -0.099,-0.06 0,0 -0.101,-0.069 -0.232,-0.161 -0.023,-0.016 -0.047,-0.032 -0.071,-0.051 -0.088,-0.064 -0.185,-0.131 -0.266,-0.194 L -11.81,15.23 c -0.944,-0.721 -0.533,-0.417 -0.944,-0.764 -0.08,-0.067 -0.159,-0.134 -0.237,-0.202 -0.038,-0.035 -0.079,-0.07 -0.118,-0.104 l -0.119,-0.102 -0.266,0.764 c 0,0 0,0.004 -0.004,0.012 -0.002,0.012 -0.01,0.033 -0.024,0.067 -0.023,0.056 -0.062,0.145 -0.135,0.287 l -0.531,0.727 c -0.064,0.053 -0.115,0.096 -0.162,0.129 -0.084,0.065 -0.143,0.102 -0.19,0.143 -0.012,0.01 -0.024,0.021 -0.037,0.033 l -0.008,0.008 c -0.004,0.004 -0.01,0.01 -0.014,0.016 -0.017,0.021 -0.033,0.041 -0.049,0.066 -0.011,0.016 -0.02,0.034 -0.031,0.055 -0.039,0.071 -0.08,0.167 -0.137,0.308 -0.02,0.049 -0.04,0.102 -0.065,0.161 -0.011,0.029 -0.023,0.062 -0.037,0.093 l -0.029,0.073 -0.024,0.065 -0.004,0.013 -0.01,0.026 -0.019,0.047 -0.004,0.011 -0.006,0.016 -0.008,0.02 -0.006,0.021 -0.011,0.024 -0.01,0.027 -0.008,0.024 -0.006,0.021 -0.012,0.029 c -0.008,0.026 -0.007,0.363 -0.025,0.428 -0.01,0.043 -0.025,0.084 -0.039,0.124 -0.006,0.012 -0.01,0.024 -0.016,0.038 -0.018,0.043 -0.039,0.084 -0.063,0.125 l -0.005,0.006 -0.002,0.004 c -0.045,0.076 -0.098,0.145 -0.159,0.206 -0.022,0.025 -0.047,0.047 -0.074,0.07 -0.016,0.014 -0.03,0.027 -0.046,0.039 l -0.015,0.01 -0.008,0.006 c -0.125,0.092 -0.267,0.16 -0.423,0.198 -0.053,0.006 -0.096,0.025 -0.204,0.023 -0.013,0 -0.025,-0.002 -0.039,-0.002 -0.027,-0.002 -0.059,-0.004 -0.094,-0.009 -0.098,-0.012 -0.194,-0.047 -0.282,-0.088 -0.041,-0.02 -0.082,-0.042 -0.118,-0.065 -0.076,-0.045 -0.144,-0.094 -0.195,-0.135 -0.071,-0.055 -0.112,-0.098 -0.112,-0.098 l -0.035,-0.035 -0.01,-0.01 -0.023,-0.022 -0.014,-0.014 -0.02,-0.021 -0.015,-0.014 -0.018,-0.019 -0.017,-0.016 -0.018,-0.016 -0.018,-0.016 -0.017,-0.017 -0.018,-0.019 -0.016,-0.014 -0.021,-0.018 -0.014,-0.013 -0.023,-0.02 -0.012,-0.01 -0.024,-0.022 -0.008,-0.009 -0.029,-0.024 -0.006,-0.004 c -0.057,-0.049 -0.117,-0.099 -0.176,-0.145 l -0.008,-0.009 -0.014,-0.01 -0.039,-0.03 -0.017,-0.012 -0.001,-0.003 -0.007,-0.006 -0.012,-0.008 -0.039,-0.033 -0.026,-0.018 -0.011,-0.008 -0.016,-0.012 c -0.047,-0.037 -0.094,-0.074 -0.141,-0.111 -0.047,-0.037 -0.096,-0.073 -0.145,-0.11 l -0.045,-0.037 -0.029,-0.023 h -0.002 l -0.075,-0.059 c 0,0 -0.192,-0.165 -0.407,-0.358 -0.096,-0.087 -0.198,-0.181 -0.288,-0.267 -0.01,-0.01 -0.021,-0.018 -0.031,-0.029 -0.018,-0.016 -0.035,-0.035 -0.055,-0.053 l -0.004,-0.006 -0.012,-0.01 -0.021,-0.021 -0.012,-0.01 -0.02,-0.02 -0.066,-0.066 -0.069,-0.069 -0.023,-0.022 -0.01,-0.011 -0.012,-0.012 -0.023,-0.023 -0.069,-0.067 c -0.041,-0.043 -0.08,-0.082 -0.119,-0.121 l -0.012,-0.012 -0.023,-0.022 -0.036,-0.039 -0.023,-0.022 c -0.049,-0.05 -0.094,-0.095 -0.129,-0.129 l -0.083,-0.086 -0.053,0.133 c -0.109,0.286 -0.013,0.108 -0.15,0.398 -0.024,0.055 -0.059,0.125 -0.102,0.215 -0.033,0.067 -0.069,0.147 -0.114,0.241 0,0 -0.109,0.221 -0.213,0.406 -0.014,0.023 -0.026,0.046 -0.039,0.066 -0.045,0.077 -0.084,0.139 -0.114,0.19 l -0.035,0.059 -0.006,0.01 c -0.01,0.015 -0.02,0.029 -0.029,0.043 -0.02,0.035 -0.036,0.058 -0.049,0.076 -0.049,0.066 -0.041,0.026 -0.112,0.106 -0.006,0.006 -0.012,0.015 -0.018,0.023 l -0.211,0.198 -0.065,0.049 -0.002,0.002 -0.004,0.004 -0.017,0.015 -0.041,0.03 -0.004,0.004 v 0.002 l -0.006,0.004 -0.018,0.017 -0.033,0.026 -0.006,0.004 -0.002,0.002 -0.008,0.006 -0.016,0.017 -0.029,0.024 -0.009,0.006 -0.004,0.005 -0.008,0.005 -0.016,0.015 -0.024,0.023 -0.011,0.008 -0.006,0.004 -0.006,0.006 -0.016,0.014 -0.023,0.021 -0.012,0.012 -0.006,0.006 -0.006,0.004 -0.014,0.014 -0.021,0.019 -0.015,0.012 -0.01,0.01 -0.002,0.002 -0.016,0.015 -0.017,0.016 -0.081,0.078 -0.008,0.008 -0.045,0.043 -0.016,0.016 -0.038,0.037 -0.022,0.022 -0.033,0.033 -0.026,0.027 -0.026,0.028 -0.031,0.031 -0.025,0.024 -0.037,0.037 -0.018,0.02 -0.055,0.058 -0.068,0.08 0.442,0.709 c 1.439,2.221 3.605,2.695 6.715,0.907 2.548,1.617 5.097,1.308 7.644,-0.754 3.27,1.952 6.092,1.769 8.024,-2.632 3.292,0.482 5.407,0.122 6.012,-1.316 L 6.833,15.786 6.825,15.778 6.819,15.77 6.813,15.762 6.807,15.756 6.805,15.753 C 6.797,15.743 6.791,15.735 6.782,15.727 L 6.78,15.723 6.776,15.721 C 6.771,15.711 6.762,15.701 6.754,15.692 L 6.752,15.69 6.75,15.686 C 6.741,15.676 6.733,15.666 6.726,15.656 L 6.59,15.461 C 6.552,15.404 6.513,15.349 6.474,15.294 6.429,15.229 6.382,15.163 6.331,15.094 6.271,15.016 6.206,14.932 6.126,14.836 6.102,14.808 6.077,14.779 6.051,14.748 5.948,14.63 5.824,14.493 5.669,14.327 5.667,14.325 5.665,14.323 5.662,14.321 L 5.658,14.317 5.656,14.315 5.638,14.294 5.626,14.28 5.624,14.276 5.605,14.258 5.6,14.25 5.585,14.235 5.574,14.223 5.559,14.209 5.548,14.196 5.527,14.176 C 5.469,14.117 5.389,14.041 5.282,13.949" /></g><g
           transform="translate(485.5449,247.516)"
           id="g172"><path
             id="path174"
             style="fill:#343433;fill-opacity:1;fill-rule:evenodd;stroke:none"
             d="M 0,0 C -0.032,-0.02 -0.801,-2.066 -0.793,-4.629 -0.784,-7.084 0,-10.061 0,-10.061 c 1.092,-1.594 2.381,-1.967 4.145,-1.291 0.364,0.088 0.676,-0.331 0.798,-0.878 0.062,-0.312 0.342,-0.335 0.44,-0.025 0.179,0.576 0.331,1.171 0.166,1.853 0,0 -0.005,0.224 0.075,0.472 0.058,0.183 0.035,0.425 0.026,0.515 C 5.477,-7.555 0.901,0.579 0,0" /></g><g
           transform="translate(481.4355,251.8714)"
           id="g176"><path
             id="path178"
             style="fill:#343433;fill-opacity:1;fill-rule:evenodd;stroke:none"
             d="m 0,0 c -0.073,0.054 -0.157,0.037 -0.184,-0.022 -0.253,-0.572 -0.67,-3.3 -0.907,-4.962 -0.108,-0.763 -0.047,-2.076 0.043,-2.378 0.513,-1.739 1.527,-1.698 3.036,-1.29 0.279,0.074 0.801,5.093 0.801,5.093 0,0 0.117,0.471 -0.49,1.457 C 1.725,-1.172 0.331,-0.243 0,0" /></g><g
           transform="translate(480.2871,252.4007)"
           id="g180"><path
             id="path182"
             style="fill:#343433;fill-opacity:1;fill-rule:evenodd;stroke:none"
             d="m 0,0 c -0.81,0.653 -2.372,1.124 -3.531,1.245 0,0 -0.027,-1.039 -0.023,-1.419 0.004,-0.549 0.189,-1.883 0.27,-2.103 0.471,-1.264 1.288,-1.268 2.493,-1.023 C -0.634,-3.269 0,0 0,0" /></g><g
           transform="translate(159.2803,750.1742)"
           id="g184"><path
             id="path186"
             style="fill:#343433;fill-opacity:1;fill-rule:evenodd;stroke:none"
             d="m 0,0 c 4.493,-0.764 3.204,-30.402 -2.878,-66.144 -6.081,-35.741 -14.667,-64.138 -19.161,-63.374 -4.493,0.765 -3.204,30.402 2.878,66.143 C -13.079,-27.631 -4.494,0.764 0,0 m -14.347,-56.455 c 1.944,6.887 4.344,11.523 6.074,11.203 2.316,-0.432 2.561,-9.586 0.546,-20.436 -2.015,-10.849 -5.532,-19.307 -7.849,-18.876 -1.714,0.319 -2.294,5.414 -1.663,12.437 l 0.556,-0.106 c -0.546,-5.763 -0.236,-9.838 0.953,-10.059 1.689,-0.314 4.224,6.971 6.019,16.635 1.794,9.662 2.174,18.065 0.484,18.378 -1.207,0.224 -2.996,-3.587 -4.574,-9.309 z m 3.327,-1.208 c -0.433,-3.335 -0.937,-7.124 -0.937,-7.124 0,0 -0.755,-3.467 -1.608,-7.381 l -4.475,0.713 0.765,7.929 1.844,6.724 v 0.01 c 1.471,-0.291 2.941,-0.581 4.411,-0.871" /></g><g
           transform="translate(143.8433,686.1395)"
           id="g188"><path
             id="path190"
             style="fill:#343433;fill-opacity:1;fill-rule:evenodd;stroke:none"
             d="M 0,0 C -0.329,-1.888 -0.791,-3.637 -1.726,-7.246 L 1.632,-7.78 c 0.78,3.579 1.162,5.301 1.477,7.11 z" /></g><g
           transform="translate(143.8564,692.309)"
           id="g192"><path
             id="path194"
             style="fill:#343433;fill-opacity:1;fill-rule:evenodd;stroke:none"
             d="M 0,0 C -0.219,-0.772 -0.414,-1.553 -0.607,-2.332 L -0.708,-2.74 c -0.253,-1.022 -0.509,-2.042 -0.817,-3.047 l -0.649,-6.425 1.591,6.151 z" /></g></g></g></g></svg>
